<svg width="46" height="46" viewBox="0 0 46 46" fill="none" xmlns="http://www.w3.org/2000/svg">
<path d="M14 33H32M45 23C45 35.1503 35.1503 45 23 45C10.8497 45 1 35.1503 1 23C1 10.8497 10.8497 1 23 1C35.1503 1 45 10.8497 45 23ZM15 21C15 22.1046 14.1046 23 13 23C11.8954 23 11 22.1046 11 21C11 19.8954 11.8954 19 13 19C14.1046 19 15 19.8954 15 21ZM35 21C35 22.1046 34.1046 23 33 23C31.8954 23 31 22.1046 31 21C31 19.8954 31.8954 19 33 19C34.1046 19 35 19.8954 35 21Z" stroke="#DDE2E0" stroke-width="2" stroke-linecap="round"/>
</svg>
