<svg width="45" height="45" viewBox="0 0 45 45" fill="none" xmlns="http://www.w3.org/2000/svg">
<path d="M28 0C27.4477 0 27 0.447715 27 1C27 1.55228 27.4477 2 28 2V0ZM44 1H45V0H44V1ZM43 18C43 18.5523 43.4477 19 44 19C44.5523 19 45 18.5523 45 18H43ZM28.6511 15.8491C28.2726 16.2513 28.2918 16.8842 28.6939 17.2627C29.0961 17.6412 29.729 17.622 30.1075 17.2198L28.6511 15.8491ZM32 28C32 36.2843 25.2843 43 17 43V45C26.3888 45 34 37.3888 34 28H32ZM17 43C8.71573 43 2 36.2843 2 28H0C0 37.3888 7.61116 45 17 45V43ZM2 28C2 19.7157 8.71573 13 17 13V11C7.61116 11 0 18.6112 0 28H2ZM17 13C25.2843 13 32 19.7157 32 28H34C34 18.6112 26.3888 11 17 11V13ZM28 2H44V0H28V2ZM43 1V18H45V1H43ZM43.2718 0.314635L28.6511 15.8491L30.1075 17.2198L44.7282 1.68536L43.2718 0.314635Z" fill="#DDE2E0"/>
</svg>
