<svg width="44" height="39" viewBox="0 0 44 39" fill="none" xmlns="http://www.w3.org/2000/svg">
<path d="M5.1 38H38.9C39.9874 38 41.0302 37.5669 41.7991 36.7959C42.568 36.0249 43 34.9792 43 33.8889V11.963C43 10.8726 42.568 9.82695 41.7991 9.05597C41.0302 8.28499 39.9874 7.85185 38.9 7.85185H32.0667L27.9667 1H16.0333L11.9333 7.85185H5.1C4.01261 7.85185 2.96976 8.28499 2.20086 9.05597C1.43196 9.82695 1 10.8726 1 11.963V33.8889C1 34.9792 1.43196 36.0249 2.20086 36.7959C2.96976 37.5669 4.01261 38 5.1 38Z" stroke="#DDE2E0" stroke-width="2" stroke-linecap="square"/>
<path d="M22 30C26.4183 30 30 26.4183 30 22C30 17.5817 26.4183 14 22 14C17.5817 14 14 17.5817 14 22C14 26.4183 17.5817 30 22 30Z" stroke="#DDE2E0" stroke-width="2" stroke-linecap="square"/>
</svg>
