<svg width="56" height="56" viewBox="0 0 56 56" fill="none" xmlns="http://www.w3.org/2000/svg">
<circle cx="28" cy="28" r="28" fill="white"/>
<path d="M24 23.0871L24 28L24 32.9129C24 33.3401 23.4989 33.5705 23.1746 33.2925L17.4429 28.3796C17.2101 28.1801 17.2101 27.8199 17.4429 27.6204L23.1746 22.7075C23.4989 22.4295 24 22.6599 24 23.0871Z" fill="black"/>
<path d="M32 23.0871L32 28L32 32.9129C32 33.3401 32.5011 33.5705 32.8254 33.2925L38.5571 28.3796C38.7899 28.1801 38.7899 27.8199 38.5571 27.6204L32.8254 22.7075C32.5011 22.4295 32 22.6599 32 23.0871Z" fill="black"/>
</svg>
