<svg width="64" height="16" viewBox="0 0 64 16" fill="none" xmlns="http://www.w3.org/2000/svg">
<path d="M0 15.9739C0 10.6653 0 5.35668 0 0C2.23666 0 6.80128 0.0406117 7.04287 0.0507646C9.874 0.169215 12.495 1.98023 13.2103 4.93649C13.6139 6.60468 13.5767 8.2787 13.3408 9.95515C13.1338 11.4266 12.6187 12.7744 11.5453 13.887C10.0585 15.4281 8.13044 15.9056 6.0691 15.9699C4.02468 16.0338 2.04652 15.9715 0 15.9739ZM1.95732 14.2309C1.95732 14.2309 4.86842 14.2968 6.30328 14.2087C8.68744 14.0623 10.2975 12.7561 11.0067 10.5343C11.5121 8.95096 11.4984 7.34409 11.1983 5.73167C10.778 3.47393 9.46226 1.98334 7.06398 1.72559C5.38781 1.54555 1.95732 1.64735 1.95732 1.64735V14.2309Z" fill="black"/>
<path d="M14.9062 15.9023L21.3345 0H23.7127L30.1454 15.9023H27.7687L26.0043 10.9041H18.9599L17.1432 15.9023H14.9062ZM25.2954 9.25758C24.3745 6.64814 23.4813 4.11694 22.5879 1.58575C22.5338 1.5825 22.4797 1.57912 22.4256 1.57587C21.5111 4.12168 20.5966 6.6675 19.666 9.25758C21.5556 9.25758 23.3657 9.25758 25.2954 9.25758Z" fill="black"/>
<path d="M44.825 15.903H43.1719L44.825 15.3164V15.903Z" fill="black"/>
<path d="M42.5895 0.0195312H44.8264V14.2336L42.5736 15.0746V8.57858H33.8857V15.9032H31.8313L31.8242 0.0195312H33.9214V6.88494H42.5895V0.0195312Z" fill="black"/>
<path d="M50.6982 0.0195312L50.681 11.6418L48.1891 12.835L48.1816 0.0195312H50.6982Z" fill="black"/>
<path d="M59.3648 15.9013C59.3648 15.9013 51.9277 15.9095 48.1875 15.9095C48.1875 15.1211 48.1875 13.769 48.1875 13.769L50.666 12.4102V14.0964H59.3648V15.9013Z" fill="black"/>
<path d="M53.3765 0.265625C53.3765 0.265625 49.6949 6.04156 53.3765 10.1027C57.361 6.15432 53.3765 0.265625 53.3765 0.265625Z" fill="#019DD9"/>
<path d="M63.9993 10.4437C63.9993 10.4437 58.0341 6.87895 53.8398 10.4437C57.9176 14.3018 63.9993 10.4437 63.9993 10.4437Z" fill="#019DD9"/>
</svg>
