<svg width="129" height="23" viewBox="0 0 129 23" fill="none" xmlns="http://www.w3.org/2000/svg">
<path d="M3.37544 8.35705H5.91744L4.67625 4.6972L3.37544 8.35705ZM2.39326 11.1624C2.3471 11.3062 2.31344 11.4377 2.29036 11.5567C2.2676 11.6757 2.25671 11.7848 2.25671 11.8844C2.25671 12.2167 2.34935 12.4577 2.53366 12.6076C2.71895 12.7576 3.01674 12.8328 3.42641 12.8328H3.58893V13.2996H0V12.8328C0.290423 12.8328 0.541417 12.7316 0.752342 12.5275C0.962626 12.3241 1.14791 12.0037 1.30786 11.5653L5.39462 0.318042H6.70761L10.8354 11.7535C10.9899 12.1788 11.147 12.4652 11.3072 12.6126C11.4675 12.7596 11.6791 12.8328 11.9419 12.8328V13.2996H5.65138V12.8328C6.27486 12.8328 6.67139 12.7847 6.84 12.6871C7.00861 12.5902 7.09356 12.4009 7.09356 12.1191C7.09356 12.0199 7.08298 11.9164 7.06342 11.8099C7.04355 11.7037 7.0131 11.5972 6.97303 11.4908L6.20049 9.16306H3.09399L2.39326 11.1624Z" fill="#F9ECEB"/>
<path d="M19.3673 11.482C18.9833 12.1463 18.5022 12.6503 17.9236 12.9945C17.3453 13.339 16.6933 13.5117 15.9669 13.5117C15.4268 13.5117 14.9254 13.4125 14.4632 13.2157C14.0006 13.0182 13.5871 12.7251 13.2217 12.3345C12.8152 11.9158 12.5068 11.4138 12.2975 10.8306C12.0882 10.2478 11.9837 9.60494 11.9837 8.90409C11.9837 7.57986 12.3619 6.50353 13.1181 5.67511C13.874 4.84734 14.853 4.43296 16.0541 4.43296C16.567 4.43296 17.0725 4.52559 17.5703 4.71086C18.0681 4.8958 18.3342 4.9881 18.3685 4.9881C18.4826 4.9881 18.5695 4.95546 18.6304 4.8892C18.6913 4.82327 18.7439 4.69932 18.7897 4.51834H19.0997V7.29636H18.7897C18.6836 6.60606 18.4464 6.0697 18.0781 5.68598C17.7107 5.30358 17.2478 5.11205 16.6901 5.11205C16.0143 5.11205 15.5008 5.42786 15.1504 6.05981C14.7991 6.69144 14.6235 7.61942 14.6235 8.84113C14.6235 10.1176 14.7959 11.0841 15.1421 11.7418C15.4883 12.3981 15.9973 12.7265 16.6696 12.7265C17.0946 12.7265 17.504 12.5946 17.8973 12.3302C18.2906 12.0662 18.6506 11.6821 18.9766 11.1781L19.3673 11.482Z" fill="#F9ECEB"/>
<path d="M20.8848 6.21548C20.8848 5.77077 20.8079 5.45496 20.6543 5.26838C20.5014 5.08179 20.2411 4.97993 19.8738 4.96344V4.64466H23.1643L26.9282 9.67292V6.21548C26.9282 5.77077 26.8532 5.4576 26.7035 5.27497C26.5538 5.09201 26.2919 4.99047 25.9172 4.96938V4.64466H28.4746V4.96344C28.1076 4.97993 27.8476 5.08179 27.694 5.26838C27.5405 5.45496 27.4642 5.77077 27.4642 6.21548V13.2995H26.574L21.4211 6.44624V11.7287C21.4211 12.173 21.4964 12.4879 21.6477 12.6731C21.7994 12.8577 22.0603 12.9606 22.4318 12.9814V13.2995H19.8738V12.9814C20.2411 12.9688 20.5014 12.8676 20.6543 12.6787C20.8079 12.4902 20.8848 12.173 20.8848 11.7287V6.21548Z" fill="#F9ECEB"/>
<path d="M29.0738 13.6175L28.886 12.9812C29.2534 12.969 29.513 12.8688 29.6666 12.6822C29.8201 12.495 29.897 12.1818 29.897 11.7417V6.22326C29.897 5.77624 29.8201 5.45879 29.6666 5.27055C29.513 5.08298 29.2534 4.98012 28.886 4.96331V4.64486H35.8369V6.99993H35.5481C35.4609 6.33238 35.2682 5.86492 34.9695 5.5979C34.6707 5.33055 34.1796 5.19638 33.4953 5.19638H32.3717V8.59019H32.5028C32.9359 8.59019 33.259 8.45339 33.4728 8.17911C33.685 7.90517 33.8209 7.44826 33.8777 6.8084H34.1665V10.966H33.8777C33.8209 10.313 33.6834 9.84948 33.4667 9.57455C33.25 9.30093 32.9173 9.16314 32.4692 9.16314H32.3717V11.8413C32.3717 12.2596 32.4307 12.5151 32.5477 12.6081C32.6657 12.7013 32.9593 12.7475 33.4295 12.7475C34.1636 12.7475 34.7275 12.5797 35.1198 12.2425C35.5122 11.9049 35.7994 11.3455 35.9815 10.5629H36.3113L36.0456 13.6175H29.0738Z" fill="#F9ECEB"/>
<path d="M38.576 13.5987V8.86612H39.0168C39.1595 9.99321 39.6297 10.9291 40.4285 11.6735C41.2267 12.4175 42.1448 12.79 43.1827 12.79C43.8501 12.79 44.3899 12.6212 44.8038 12.2814C45.2167 11.9418 45.4237 11.5047 45.4237 10.969C45.4237 10.1482 44.4509 9.27291 42.5035 8.34559L42.4785 8.33603C42.3586 8.28032 42.1784 8.19592 41.9393 8.08384C40.5933 7.46178 39.6961 6.81829 39.245 6.15172C39.0453 5.85305 38.8944 5.53428 38.7924 5.19473C38.6898 4.85584 38.6376 4.49981 38.6376 4.12598C38.6376 2.93098 39.0521 1.94497 39.8807 1.16665C40.709 0.388665 41.7697 0 43.0622 0C43.7623 0 44.4941 0.153949 45.2567 0.461189C46.0203 0.769418 46.436 0.923368 46.5043 0.923368C46.6973 0.923368 46.8342 0.858756 46.914 0.729531C46.9938 0.601624 47.0448 0.363941 47.0682 0.0187902H47.5484V4.1995H47.1355C46.9707 3.20723 46.5367 2.40089 45.8344 1.78015C45.132 1.15907 44.3088 0.848537 43.3642 0.848537C42.7731 0.848537 42.2974 0.996881 41.9393 1.29258C41.5812 1.58927 41.4017 1.97695 41.4017 2.45726C41.4017 3.15547 42.156 3.84742 43.6649 4.53377L43.8533 4.6175C44.9391 5.11561 45.6975 5.49604 46.1286 5.76009C46.5611 6.02514 46.8851 6.28688 47.1022 6.54863C47.4333 6.94059 47.6836 7.36783 47.8523 7.83067C48.0205 8.29383 48.1055 8.78997 48.1055 9.31841C48.1055 10.5863 47.6808 11.6204 46.8326 12.4188C45.9847 13.2182 44.881 13.6175 43.5225 13.6175C42.7513 13.6175 41.9502 13.4698 41.1193 13.176C40.2888 12.882 39.839 12.734 39.7708 12.734C39.5698 12.734 39.4056 12.8095 39.2774 12.9598C39.1489 13.1101 39.0732 13.3227 39.0505 13.5987H38.576Z" fill="#F9ECEB"/>
<path d="M52.4385 8.80242H52.5468C52.9706 8.80242 53.2822 8.6488 53.4809 8.34156C53.68 8.03366 53.7797 7.55368 53.7797 6.90129C53.7797 6.29043 53.6704 5.83913 53.4524 5.54805C53.2348 5.25729 52.8972 5.11224 52.4385 5.11224V8.80242ZM52.4385 11.7298C52.4385 12.1949 52.5222 12.5193 52.6889 12.7039C52.8549 12.8888 53.1485 12.9815 53.5694 12.9815H53.6146V13.2996H48.9531V12.9815C49.3201 12.9689 49.5801 12.8677 49.734 12.6788C49.8869 12.4903 49.9638 12.1738 49.9638 11.7298V6.20901C49.9638 5.76562 49.8869 5.45047 49.734 5.26355C49.5801 5.07631 49.3201 4.97477 48.9531 4.95862V4.64478H53.279C54.2724 4.64478 55.0267 4.84159 55.5427 5.23454C56.0582 5.62716 56.3166 6.20142 56.3166 6.95766C56.3166 7.73499 56.0489 8.32507 55.5145 8.72791C54.9795 9.13108 54.1948 9.33283 53.1601 9.33283H52.4385V11.7298Z" fill="#F9ECEB"/>
<path d="M56.5843 13.2996V12.9815C56.951 12.9689 57.2113 12.8687 57.3648 12.6821C57.5184 12.4952 57.5953 12.1817 57.5953 11.7416V6.22318C57.5953 5.77617 57.5184 5.45871 57.3648 5.27047C57.2113 5.0829 56.951 4.98005 56.5843 4.96323V4.64479H63.5352V6.99985H63.2463C63.1592 6.3323 62.9659 5.86517 62.6678 5.59782C62.369 5.3308 61.8773 5.1963 61.1932 5.1963H60.07V8.59012H60.2008C60.6338 8.59012 60.9573 8.45331 61.1701 8.17903C61.3833 7.90542 61.5179 7.44819 61.5759 6.80865H61.8641V10.966H61.5759C61.5179 10.3129 61.381 9.84941 61.165 9.5748C60.9477 9.30119 60.6156 9.16306 60.1668 9.16306H60.07V11.8412C60.07 12.2599 60.1283 12.5153 60.246 12.608C60.363 12.7013 60.6569 12.7477 61.1265 12.7477C61.8619 12.7477 62.4257 12.5796 62.8174 12.2424C63.2101 11.9051 63.4967 11.3457 63.6791 10.5631H64.0089L63.5563 13.2996H56.5843Z" fill="#F9ECEB"/>
<path d="M72.1837 11.482C71.8 12.1463 71.3182 12.6503 70.74 12.9945C70.162 13.339 69.509 13.5117 68.7827 13.5117C68.2428 13.5117 67.7415 13.4125 67.2789 13.2157C66.8167 13.0182 66.4035 12.7251 66.0381 12.3345C65.631 11.9158 65.3229 11.4138 65.1136 10.8306C64.9043 10.2478 64.8001 9.60494 64.8001 8.90409C64.8001 7.57986 65.1777 6.50353 65.9339 5.67511C66.6904 4.84734 67.6687 4.43296 68.8702 4.43296C69.3831 4.43296 69.8886 4.52559 70.3861 4.71086C70.8839 4.8958 71.1503 4.9881 71.1846 4.9881C71.2984 4.9881 71.3862 4.95546 71.4468 4.8892C71.5074 4.82327 71.5606 4.69932 71.6061 4.51834H71.9154V7.29636H71.6061C71.5 6.60606 71.2628 6.0697 70.8948 5.68598C70.5268 5.30358 70.0636 5.11205 69.5058 5.11205C68.8307 5.11205 68.3172 5.42786 67.9665 6.05981C67.6149 6.69144 67.4398 7.61942 67.4398 8.84113C67.4398 10.1176 67.6129 11.0841 67.9585 11.7418C68.3037 12.3981 68.8131 12.7265 69.4856 12.7265C69.9104 12.7265 70.3197 12.5946 70.713 12.3302C71.1067 12.0662 71.4663 11.6821 71.7933 11.1781L72.1837 11.482Z" fill="#F9ECEB"/>
<path d="M76.197 11.7286C76.197 12.1733 76.2723 12.4881 76.4236 12.673C76.5752 12.858 76.8362 12.9608 77.2074 12.9813V13.2997H72.7106V12.9813C73.0821 12.9648 73.3434 12.8623 73.4944 12.6757C73.646 12.4891 73.7216 12.1733 73.7216 11.7286V6.21539C73.7216 5.77101 73.645 5.4552 73.4915 5.26829C73.3379 5.0817 73.078 4.98017 72.7106 4.96336V4.64491H77.2074V4.96929C76.8323 4.99039 76.5704 5.09192 76.421 5.27488C76.2717 5.45784 76.197 5.77101 76.197 6.21539V11.7286Z" fill="#F9ECEB"/>
<path d="M79.3793 10.0117H81.0802L80.2496 7.56764L79.3793 10.0117ZM78.7264 11.8703C78.6965 11.9666 78.6735 12.0536 78.6581 12.1327C78.6427 12.2112 78.6356 12.2847 78.6356 12.3506C78.6356 12.5715 78.6972 12.7314 78.82 12.8309C78.9434 12.9315 79.1405 12.9813 79.4133 12.9813H79.5213V13.2997H77.129V12.9813C77.3227 12.9813 77.4893 12.914 77.6297 12.7785C77.7698 12.6434 77.8939 12.4301 78 12.1387L80.7311 4.64491H81.6056L84.3534 12.2636C84.456 12.5464 84.5605 12.737 84.6672 12.8342C84.7736 12.9328 84.915 12.9813 85.0903 12.9813V13.2997H80.9036V12.9813C81.318 12.9813 81.5819 12.949 81.6947 12.884C81.8066 12.8201 81.8627 12.6941 81.8627 12.5062C81.8627 12.4406 81.8563 12.3724 81.8431 12.3009C81.8293 12.2306 81.8095 12.1598 81.7829 12.0889L81.2687 10.5418H79.1918L78.7264 11.8703Z" fill="#F9ECEB"/>
<path d="M88.5496 11.7222C88.5496 12.1062 88.6079 12.3723 88.7227 12.5226C88.8381 12.6732 89.0397 12.7477 89.3282 12.7477C89.9379 12.7477 90.4421 12.5022 90.8412 12.01C91.241 11.5178 91.5019 10.8232 91.6231 9.92622L91.9529 9.97072L91.6461 13.2996H85.0642V12.9815C85.4312 12.9686 85.6909 12.8677 85.8447 12.6772C85.998 12.487 86.0749 12.1689 86.0749 11.7222V6.21197C86.0749 5.76892 85.998 5.45409 85.8447 5.26784C85.6909 5.08191 85.4312 4.98005 85.0642 4.96356V4.64479H89.5603V4.96356C89.1888 4.98466 88.9278 5.08685 88.7765 5.27113C88.6249 5.45508 88.5496 5.76892 88.5496 6.21197V11.7222Z" fill="#F9ECEB"/>
<path d="M95.8194 11.7286C95.8194 12.1733 95.894 12.4881 96.0453 12.673C96.197 12.858 96.4582 12.9608 96.8294 12.9813V13.2997H92.3333V12.9813C92.7045 12.9648 92.9655 12.8623 93.1168 12.6757C93.2684 12.4891 93.3437 12.1733 93.3437 11.7286V6.21539C93.3437 5.77101 93.2671 5.4552 93.1139 5.26829C92.96 5.0817 92.7004 4.98017 92.3333 4.96336V4.64491H96.8294V4.96929C96.4544 4.99039 96.1928 5.09192 96.0431 5.27488C95.894 5.45784 95.8194 5.77101 95.8194 6.21539V11.7286Z" fill="#F9ECEB"/>
<path d="M97.6582 13.4985V10.351H97.9656C98.0598 11.1006 98.3737 11.7227 98.9058 12.2175C99.4382 12.7126 100.051 12.9595 100.743 12.9595C101.187 12.9595 101.548 12.8471 101.824 12.621C102.099 12.3948 102.237 12.1041 102.237 11.7474C102.237 11.2005 101.583 10.6186 100.276 10.0009L100.259 9.99427C100.178 9.95702 100.059 9.9013 99.8992 9.82614C99.0026 9.41143 98.4038 8.98189 98.1044 8.53718C97.972 8.33807 97.8707 8.12511 97.8024 7.89897C97.7338 7.67282 97.6999 7.43481 97.6999 7.18526C97.6999 6.38881 97.9765 5.73049 98.5291 5.21161C99.0824 4.6924 99.7899 4.43296 100.652 4.43296C101.12 4.43296 101.608 4.53317 102.117 4.73361C102.627 4.93404 102.904 5.03425 102.95 5.03425C103.079 5.03425 103.17 4.99272 103.224 4.90865C103.277 4.82426 103.311 4.66998 103.327 4.44516H103.64V7.21196H103.371C103.261 6.55199 102.97 6.01663 102.501 5.60324C102.032 5.19117 101.48 4.98447 100.848 4.98447C100.453 4.98447 100.134 5.08304 99.8953 5.27985C99.6553 5.47698 99.5354 5.73543 99.5354 6.05487C99.5354 6.51969 100.042 6.98055 101.055 7.43712L101.182 7.49316C101.905 7.82579 102.409 8.08061 102.696 8.25698C102.983 8.434 103.199 8.60971 103.344 8.7841C103.564 9.04618 103.73 9.33232 103.843 9.64153C103.955 9.95108 104.011 10.2834 104.011 10.6358C104.011 11.4846 103.729 12.1753 103.165 12.7097C102.601 13.2444 101.867 13.5117 100.963 13.5117C100.45 13.5117 99.9168 13.4131 99.3645 13.217C98.8115 13.0208 98.5125 12.9229 98.4669 12.9229C98.3339 12.9229 98.2246 12.9727 98.1397 13.0733C98.0534 13.1735 98.0037 13.3149 97.9884 13.4985H97.6582Z" fill="#F9ECEB"/>
<path d="M111.975 4.64479V6.87228H111.686C111.633 6.2723 111.479 5.84342 111.228 5.58497C110.974 5.32619 110.583 5.1963 110.051 5.1963H109.54V11.7268C109.54 12.1718 109.615 12.487 109.765 12.6719C109.914 12.8575 110.177 12.9607 110.551 12.9815V13.2996H106.055V12.9815C106.418 12.9689 106.677 12.8677 106.832 12.6785C106.987 12.489 107.066 12.1718 107.066 11.7268V5.1963H106.554C106.019 5.1963 105.626 5.32619 105.376 5.58497C105.126 5.84342 104.974 6.2723 104.92 6.87228H104.632V4.64479H111.975Z" fill="#F9ECEB"/>
<path d="M112.369 13.2996V12.9815C112.736 12.9689 112.996 12.8687 113.149 12.6821C113.302 12.4952 113.379 12.1817 113.379 11.7416V6.22318C113.379 5.77617 113.302 5.45871 113.149 5.27047C112.996 5.0829 112.736 4.98005 112.369 4.96323V4.64479H119.319V6.99985H119.031C118.944 6.3323 118.751 5.86517 118.452 5.59782C118.154 5.3308 117.662 5.1963 116.978 5.1963H115.854V8.59012H115.985C116.419 8.59012 116.742 8.45331 116.955 8.17903C117.168 7.90542 117.303 7.44819 117.36 6.80865H117.649V10.966H117.36C117.303 10.3129 117.166 9.84941 116.949 9.5748C116.732 9.30119 116.4 9.16306 115.951 9.16306H115.854V11.8412C115.854 12.2599 115.913 12.5153 116.031 12.608C116.148 12.7013 116.442 12.7477 116.912 12.7477C117.647 12.7477 118.21 12.5796 118.602 12.2424C118.994 11.9051 119.282 11.3457 119.464 10.5631H119.793L119.341 13.2996H112.369Z" fill="#F9ECEB"/>
<path d="M121.41 6.21548C121.41 5.77077 121.333 5.45496 121.179 5.26838C121.027 5.08179 120.766 4.97993 120.399 4.96344V4.64466H123.69L127.453 9.67292V6.21548C127.453 5.77077 127.378 5.4576 127.229 5.27497C127.079 5.09201 126.816 4.99047 126.442 4.96938V4.64466H129V4.96344C128.632 4.97993 128.373 5.08179 128.218 5.26838C128.066 5.45496 127.989 5.77077 127.989 6.21548V13.2995H127.099L121.946 6.44624V11.7287C121.946 12.173 122.022 12.4879 122.173 12.6731C122.324 12.8577 122.585 12.9606 122.957 12.9814V13.2995H120.399V12.9814C120.766 12.9688 121.027 12.8676 121.179 12.6787C121.333 12.4902 121.41 12.173 121.41 11.7287V6.21548Z" fill="#F9ECEB"/>
<path d="M0.540379 19.8391C29.7157 14.497 70.3803 20.7371 76.2432 21.4791C82.1062 22.2212 101.947 26.2057 128.307 17.2348C105.606 23.6018 79.6709 19.8305 76.3368 19.3565C73.0027 18.8828 22.5862 11.06 0.540379 19.8391Z" fill="#F9ECEB"/>
</svg>
