<svg width="160" height="28" viewBox="0 0 160 28" fill="none" xmlns="http://www.w3.org/2000/svg">
<path d="M4.18659 10.1738H7.33946L5.8 5.71833L4.18659 10.1738ZM2.96839 13.589C2.91113 13.764 2.86939 13.9241 2.84076 14.069C2.81253 14.2139 2.79902 14.3467 2.79902 14.4679C2.79902 14.8725 2.91392 15.1658 3.14253 15.3484C3.37234 15.531 3.74169 15.6225 4.24981 15.6225H4.45139V16.1908H0V15.6225C0.360214 15.6225 0.671525 15.4993 0.933138 15.2509C1.19395 15.0033 1.42376 14.6132 1.62216 14.0795L6.691 0.387182H8.31952L13.4392 14.3086C13.6309 14.8263 13.8257 15.1751 14.0245 15.3545C14.2233 15.5334 14.4857 15.6225 14.8117 15.6225V16.1908H7.00946V15.6225C7.78277 15.6225 8.27459 15.5639 8.48372 15.4452C8.69285 15.3272 8.79821 15.0968 8.79821 14.7537C8.79821 14.6329 8.78509 14.5069 8.76084 14.3772C8.73619 14.248 8.69842 14.1184 8.64872 13.9888L7.69053 11.155H3.83751L2.96839 13.589Z" fill="#489A84"/>
<path d="M24.0215 13.9781C23.5452 14.7868 22.9484 15.4004 22.2308 15.8194C21.5135 16.2387 20.7048 16.449 19.8039 16.449C19.134 16.449 18.5121 16.3282 17.9388 16.0886C17.3651 15.8483 16.8522 15.4915 16.399 15.0159C15.8948 14.5062 15.5123 13.895 15.2527 13.1851C14.9931 12.4755 14.8635 11.693 14.8635 10.8398C14.8635 9.22766 15.3326 7.91734 16.2705 6.90882C17.2081 5.90111 18.4223 5.39665 19.912 5.39665C20.5482 5.39665 21.1752 5.50942 21.7926 5.73496C22.4101 5.9601 22.7401 6.07247 22.7826 6.07247C22.9242 6.07247 23.0319 6.03274 23.1075 5.95207C23.183 5.87181 23.2482 5.72091 23.3051 5.50059H23.6895V8.88252H23.3051C23.1735 8.04215 22.8792 7.3892 22.4224 6.92207C21.9668 6.45653 21.3927 6.22337 20.7009 6.22337C19.8627 6.22337 19.2258 6.60783 18.7912 7.37717C18.3555 8.1461 18.1376 9.27582 18.1376 10.7631C18.1376 12.317 18.3515 13.4937 18.7809 14.2943C19.2103 15.0934 19.8417 15.4931 20.6754 15.4931C21.2026 15.4931 21.7103 15.3326 22.1982 15.0107C22.686 14.6892 23.1325 14.2217 23.5368 13.6081L24.0215 13.9781Z" fill="#489A84"/>
<path d="M25.9036 7.56667C25.9036 7.02529 25.8082 6.64082 25.6178 6.41367C25.4281 6.18653 25.1053 6.06252 24.6497 6.04245V5.65437H28.7309L33.3994 11.7757V7.56667C33.3994 7.02529 33.3063 6.64403 33.1207 6.4217C32.935 6.19897 32.6102 6.07536 32.1454 6.04967V5.65437H35.3173V6.04245C34.8621 6.06252 34.5396 6.18653 34.3492 6.41367C34.1588 6.64082 34.0641 7.02529 34.0641 7.56667V16.1907H32.96L26.5688 7.84759V14.2784C26.5688 14.8193 26.6622 15.2026 26.8499 15.4282C27.038 15.6529 27.3616 15.7781 27.8224 15.8034V16.1907H24.6497V15.8034C25.1053 15.7881 25.4281 15.6649 25.6178 15.435C25.8082 15.2054 25.9036 14.8193 25.9036 14.2784V7.56667Z" fill="#489A84"/>
<path d="M36.0606 16.5778L35.8276 15.8032C36.2832 15.7884 36.6053 15.6664 36.7957 15.4392C36.9862 15.2113 37.0816 14.83 37.0816 14.2943V7.57614C37.0816 7.03195 36.9862 6.64548 36.7957 6.41632C36.6053 6.18797 36.2832 6.06276 35.8276 6.04229V5.65461H44.4489V8.52165H44.0907C43.9825 7.70898 43.7436 7.1399 43.373 6.81483C43.0025 6.48936 42.3934 6.32603 41.5445 6.32603H40.151V10.4576H40.3136C40.8507 10.4576 41.2515 10.2911 41.5167 9.95718C41.7799 9.62368 41.9485 9.06745 42.0188 8.28849H42.3771V13.3499H42.0188C41.9485 12.5549 41.7779 11.9907 41.5091 11.656C41.2404 11.3229 40.8277 11.1551 40.2718 11.1551H40.151V14.4155C40.151 14.9247 40.2241 15.2358 40.3692 15.3489C40.5156 15.4625 40.8797 15.5187 41.463 15.5187C42.3735 15.5187 43.0728 15.3144 43.5595 14.9039C44.0461 14.4929 44.4024 13.8119 44.6282 12.8591H45.0373L44.7077 16.5778H36.0606Z" fill="#489A84"/>
<path d="M47.8463 16.5549V10.7935H48.3929C48.5699 12.1657 49.1531 13.305 50.1439 14.2112C51.1339 15.117 52.2726 15.5705 53.56 15.5705C54.3878 15.5705 55.0573 15.365 55.5706 14.9512C56.0827 14.5379 56.3395 14.0057 56.3395 13.3536C56.3395 12.3543 55.1328 11.2888 52.7175 10.1598L52.6865 10.1482C52.5378 10.0804 52.3143 9.97765 52.0177 9.8412C50.3483 9.0839 49.2354 8.30053 48.676 7.48905C48.4283 7.12546 48.2411 6.73738 48.1146 6.32402C47.9874 5.91146 47.9226 5.47803 47.9226 5.02294C47.9226 3.56815 48.4367 2.36779 49.4644 1.42027C50.4918 0.473157 51.8074 0 53.4105 0C54.2788 0 55.1865 0.187416 56.1324 0.561448C57.0794 0.936683 57.5951 1.1241 57.6798 1.1241C57.9191 1.1241 58.0889 1.04544 58.1879 0.888124C58.2869 0.732412 58.3501 0.443058 58.3791 0.022875H58.9747V5.11243H58.4626C58.2583 3.90445 57.7199 2.92282 56.8488 2.16713C55.9777 1.41104 54.9567 1.033 53.785 1.033C53.0519 1.033 52.4618 1.21359 52.0177 1.57358C51.5736 1.93477 51.351 2.40672 51.351 2.99145C51.351 3.84145 52.2865 4.68382 54.158 5.51937L54.3917 5.62131C55.7384 6.2277 56.6791 6.69083 57.2138 7.01228C57.7502 7.33495 58.1521 7.6536 58.4213 7.97225C58.832 8.44942 59.1425 8.96953 59.3516 9.53298C59.5604 10.0968 59.6657 10.7008 59.6657 11.3441C59.6657 12.8876 59.1389 14.1466 58.0869 15.1186C57.0353 16.0918 55.6664 16.5778 53.9814 16.5778C53.0248 16.5778 52.0313 16.398 51.0007 16.0404C49.9706 15.6824 49.4128 15.5022 49.3281 15.5022C49.0788 15.5022 48.8752 15.5941 48.7162 15.7771C48.5567 15.9601 48.4629 16.219 48.4347 16.5549H47.8463Z" fill="#489A84"/>
<path d="M65.04 10.716H65.1744C65.7 10.716 66.0864 10.529 66.333 10.1549C66.5799 9.7801 66.7035 9.19578 66.7035 8.40156C66.7035 7.65792 66.5679 7.10851 66.2976 6.75414C66.0276 6.40018 65.6089 6.22359 65.04 6.22359V10.716ZM65.04 14.2797C65.04 14.846 65.1438 15.2409 65.3505 15.4656C65.5565 15.6908 65.9207 15.8035 66.4427 15.8035H66.4987V16.1908H60.717V15.8035C61.1723 15.7883 61.4947 15.6651 61.6856 15.4351C61.8752 15.2056 61.9706 14.8203 61.9706 14.2797V7.55879C61.9706 7.01901 61.8752 6.63535 61.6856 6.4078C61.4947 6.17985 61.1723 6.05624 60.717 6.03658V5.65452H66.0825C67.3146 5.65452 68.2501 5.89411 68.8902 6.37249C69.5295 6.85046 69.85 7.54956 69.85 8.47019C69.85 9.41651 69.518 10.1349 68.8552 10.6253C68.1917 11.1161 67.2184 11.3617 65.935 11.3617H65.04V14.2797Z" fill="#489A84"/>
<path d="M70.182 16.1908V15.8035C70.6369 15.7883 70.9597 15.6663 71.1502 15.4391C71.3406 15.2116 71.436 14.8299 71.436 14.2942V7.57605C71.436 7.03186 71.3406 6.64538 71.1502 6.41623C70.9597 6.18788 70.6369 6.06266 70.182 6.0422V5.65452H78.8033V8.52156H78.4451C78.3369 7.70888 78.0972 7.14021 77.7274 6.81474C77.3569 6.48967 76.747 6.32593 75.8985 6.32593H74.5054V10.4575H74.6676C75.2048 10.4575 75.6059 10.291 75.8699 9.95709C76.1343 9.62399 76.3013 9.06736 76.3733 8.28879H76.7307V13.3499H76.3733C76.3013 12.5548 76.1315 11.9906 75.8636 11.6563C75.594 11.3232 75.1821 11.155 74.6255 11.155H74.5054V14.4154C74.5054 14.925 74.5778 15.2361 74.7237 15.3488C74.8688 15.4624 75.2334 15.519 75.8158 15.519C76.7279 15.519 77.4273 15.3143 77.9131 14.9038C78.4002 14.4932 78.7556 13.8122 78.9818 12.8594H79.3909L78.8296 16.1908H70.182Z" fill="#489A84"/>
<path d="M89.5302 13.9781C89.0543 14.7868 88.4567 15.4004 87.7395 15.8194C87.0226 16.2387 86.2128 16.449 85.3118 16.449C84.6423 16.449 84.0205 16.3282 83.4467 16.0886C82.8734 15.8483 82.3609 15.4915 81.9077 15.0159C81.4027 14.5062 81.0207 13.895 80.761 13.1851C80.5014 12.4755 80.3722 11.693 80.3722 10.8398C80.3722 9.22766 80.8406 7.91734 81.7785 6.90882C82.7168 5.90111 83.9302 5.39665 85.4204 5.39665C86.0565 5.39665 86.6835 5.50942 87.3006 5.73496C87.918 5.9601 88.2484 6.07247 88.2909 6.07247C88.4321 6.07247 88.541 6.03274 88.6162 5.95207C88.6913 5.87181 88.7573 5.72091 88.8138 5.50059H89.1974V8.88252H88.8138C88.6822 8.04215 88.388 7.3892 87.9315 6.92207C87.4751 6.45653 86.9006 6.22337 86.2088 6.22337C85.3715 6.22337 84.7345 6.60783 84.2996 7.37717C83.8634 8.1461 83.6463 9.27582 83.6463 10.7631C83.6463 12.317 83.861 13.4937 84.2896 14.2943C84.7178 15.0934 85.3496 15.4931 86.1837 15.4931C86.7105 15.4931 87.2183 15.3326 87.7061 15.0107C88.1943 14.6892 88.6404 14.2217 89.046 13.6081L89.5302 13.9781Z" fill="#489A84"/>
<path d="M94.5079 14.2783C94.5079 14.8196 94.6013 15.2029 94.789 15.428C94.977 15.6532 95.3007 15.7784 95.7611 15.8033V16.191H90.1837V15.8033C90.6445 15.7832 90.9686 15.6584 91.1558 15.4313C91.3439 15.2041 91.4377 14.8196 91.4377 14.2783V7.56656C91.4377 7.02558 91.3427 6.64112 91.1522 6.41357C90.9618 6.18642 90.6393 6.06281 90.1837 6.04235V5.65467H95.7611V6.04957C95.2959 6.07525 94.9711 6.19886 94.7858 6.42159C94.6005 6.64433 94.5079 7.02558 94.5079 7.56656V14.2783Z" fill="#489A84"/>
<path d="M98.455 12.1882H100.565L99.5344 9.21278L98.455 12.1882ZM97.6451 14.4508C97.6081 14.568 97.5795 14.674 97.5604 14.7703C97.5413 14.8658 97.5326 14.9553 97.5326 15.0356C97.5326 15.3044 97.6089 15.4991 97.7612 15.6203C97.9143 15.7427 98.1588 15.8033 98.4971 15.8033H98.6311V16.191H95.6639V15.8033C95.9041 15.8033 96.1108 15.7214 96.285 15.5565C96.4587 15.3919 96.6126 15.1323 96.7442 14.7775L100.132 5.65467H101.216L104.624 14.9296C104.752 15.2739 104.881 15.5059 105.014 15.6243C105.146 15.7443 105.321 15.8033 105.538 15.8033V16.191H100.346V15.8033C100.86 15.8033 101.187 15.7639 101.327 15.6849C101.466 15.607 101.535 15.4537 101.535 15.225C101.535 15.1451 101.527 15.062 101.511 14.975C101.494 14.8895 101.469 14.8032 101.436 14.7169L100.798 12.8335H98.2224L97.6451 14.4508Z" fill="#489A84"/>
<path d="M109.829 14.2705C109.829 14.738 109.901 15.0619 110.044 15.2449C110.187 15.4283 110.437 15.519 110.795 15.519C111.551 15.519 112.176 15.22 112.671 14.6208C113.167 14.0217 113.491 13.1761 113.641 12.0841L114.05 12.1383L113.67 16.1908H105.506V15.8035C105.961 15.7879 106.283 15.6651 106.474 15.4331C106.664 15.2016 106.76 14.8143 106.76 14.2705V7.5624C106.76 7.02303 106.664 6.63976 106.474 6.41302C106.283 6.18667 105.961 6.06266 105.506 6.0426V5.65452H111.083V6.0426C110.622 6.06828 110.298 6.19269 110.11 6.41703C109.922 6.64097 109.829 7.02303 109.829 7.5624V14.2705Z" fill="#489A84"/>
<path d="M118.846 14.2783C118.846 14.8196 118.938 15.2029 119.126 15.428C119.314 15.6532 119.638 15.7784 120.099 15.8033V16.191H114.522V15.8033C114.982 15.7832 115.306 15.6584 115.494 15.4313C115.682 15.2041 115.775 14.8196 115.775 14.2783V7.56656C115.775 7.02558 115.68 6.64112 115.49 6.41357C115.299 6.18642 114.977 6.06281 114.522 6.04235V5.65467H120.099V6.04957C119.633 6.07525 119.309 6.19886 119.123 6.42159C118.938 6.64433 118.846 7.02558 118.846 7.56656V14.2783Z" fill="#489A84"/>
<path d="M121.126 16.433V12.6012H121.508C121.625 13.5138 122.014 14.2711 122.674 14.8734C123.334 15.4762 124.094 15.7768 124.953 15.7768C125.504 15.7768 125.951 15.64 126.293 15.3647C126.635 15.0894 126.806 14.7354 126.806 14.3012C126.806 13.6354 125.994 12.927 124.373 12.175L124.352 12.1669C124.252 12.1216 124.104 12.0538 123.906 11.9623C122.794 11.4574 122.051 10.9345 121.68 10.3931C121.516 10.1507 121.39 9.89144 121.305 9.61614C121.22 9.34083 121.178 9.05108 121.178 8.74728C121.178 7.77768 121.521 6.97625 122.207 6.34457C122.893 5.71248 123.77 5.39664 124.84 5.39664C125.42 5.39664 126.026 5.51865 126.657 5.76265C127.289 6.00665 127.633 6.12865 127.69 6.12865C127.85 6.12865 127.963 6.07809 128.03 5.97575C128.095 5.87301 128.138 5.6852 128.157 5.41149H128.545V8.77978H128.213C128.076 7.97634 127.715 7.32459 127.133 6.82134C126.551 6.31968 125.866 6.06806 125.083 6.06806C124.593 6.06806 124.198 6.18805 123.901 6.42764C123.603 6.66763 123.455 6.98227 123.455 7.37115C123.455 7.93701 124.083 8.49806 125.34 9.05389L125.498 9.12211C126.393 9.52704 127.019 9.83727 127.375 10.052C127.731 10.2675 127.999 10.4814 128.178 10.6937C128.451 11.0127 128.658 11.3611 128.797 11.7375C128.937 12.1144 129.006 12.5189 129.006 12.9479C129.006 13.9813 128.656 14.8221 127.957 15.4726C127.257 16.1236 126.347 16.449 125.226 16.449C124.589 16.449 123.928 16.329 123.243 16.0903C122.557 15.8515 122.186 15.7323 122.13 15.7323C121.965 15.7323 121.829 15.7929 121.724 15.9153C121.617 16.0373 121.555 16.2094 121.536 16.433H121.126Z" fill="#489A84"/>
<path d="M138.883 5.65452V8.36625H138.525C138.459 7.63584 138.269 7.11372 137.957 6.79909C137.643 6.48405 137.157 6.32593 136.498 6.32593H135.863V14.2761C135.863 14.8179 135.956 15.2016 136.142 15.4267C136.327 15.6526 136.653 15.7782 137.118 15.8035V16.1908H131.541V15.8035C131.991 15.7883 132.313 15.6651 132.505 15.4347C132.697 15.204 132.794 14.8179 132.794 14.2761V6.32593H132.16C131.497 6.32593 131.008 6.48405 130.699 6.79909C130.388 7.11372 130.2 7.63584 130.134 8.36625H129.776V5.65452H138.883Z" fill="#489A84"/>
<path d="M139.372 16.1908V15.8035C139.828 15.7883 140.15 15.6663 140.34 15.4391C140.53 15.2116 140.626 14.8299 140.626 14.2942V7.57605C140.626 7.03186 140.53 6.64538 140.34 6.41623C140.15 6.18788 139.828 6.06266 139.372 6.0422V5.65452H147.993V8.52156H147.635C147.527 7.70888 147.288 7.14021 146.918 6.81474C146.547 6.48967 145.938 6.32593 145.088 6.32593H143.695V10.4575H143.858C144.396 10.4575 144.796 10.291 145.06 9.95709C145.325 9.62399 145.492 9.06736 145.562 8.28879H145.921V13.3499H145.562C145.492 12.5548 145.322 11.9906 145.053 11.6563C144.784 11.3232 144.372 11.155 143.816 11.155H143.695V14.4154C143.695 14.925 143.768 15.2361 143.914 15.3488C144.06 15.4624 144.424 15.519 145.007 15.519C145.918 15.519 146.618 15.3143 147.103 14.9038C147.59 14.4932 147.946 13.8122 148.172 12.8594H148.581L148.019 16.1908H139.372Z" fill="#489A84"/>
<path d="M150.586 7.56667C150.586 7.02529 150.491 6.64082 150.3 6.41367C150.111 6.18653 149.787 6.06252 149.332 6.04245V5.65437H153.414L158.081 11.7757V7.56667C158.081 7.02529 157.989 6.64403 157.803 6.4217C157.618 6.19897 157.292 6.07536 156.827 6.04967V5.65437H160V6.04245C159.544 6.06252 159.222 6.18653 159.031 6.41367C158.841 6.64082 158.746 7.02529 158.746 7.56667V16.1907H157.642L151.251 7.84759V14.2784C151.251 14.8193 151.345 15.2026 151.533 15.4282C151.72 15.6529 152.044 15.7781 152.504 15.8034V16.1907H149.332V15.8034C149.787 15.7881 150.111 15.6649 150.3 15.435C150.491 15.2054 150.586 14.8193 150.586 14.2784V7.56667Z" fill="#489A84"/>
<path d="M0.670237 24.1519C36.8567 17.6485 87.2934 25.2451 94.5653 26.1485C101.837 27.0519 126.446 31.9026 159.14 20.9815C130.984 28.7326 98.8167 24.1415 94.6814 23.5644C90.5461 22.9877 28.0139 13.4643 0.670237 24.1519Z" fill="#489A84"/>
</svg>
