<svg width="296" height="250" viewBox="0 0 296 250" fill="none" xmlns="http://www.w3.org/2000/svg">
<path d="M144 135C174.928 135 200 109.928 200 79C200 48.0721 174.928 23 144 23C113.072 23 88 48.0721 88 79C88 109.928 113.072 135 144 135Z" fill="#DAF3EC"/>
<path d="M165.724 205.073L163.929 205.458C161.913 205.682 146.05 202.4 144.849 205.838C144.471 207.154 151.704 208.709 151.704 208.709C146.077 210.009 140.494 205.737 139.324 207.636C138.153 209.535 140.834 215.898 146.978 218.516C153.121 221.134 159.895 218.155 163.191 216.74C166.488 215.324 168.542 215.194 168.542 215.194" stroke="black" stroke-width="0.8" stroke-miterlimit="10" stroke-linejoin="round"/>
<path d="M142.354 204.612L145.068 205.502" stroke="black" stroke-width="0.8" stroke-miterlimit="10" stroke-linejoin="round"/>
<path d="M161.515 101.423C161.515 101.423 175 107.058 174.587 112.254C174.175 117.451 154.417 138.416 154.417 138.416" stroke="black" stroke-width="0.8" stroke-miterlimit="10" stroke-linecap="round"/>
<path d="M147.791 102.015C147.791 102.015 136.833 105.47 135.358 110.267C133.708 114.263 155.09 132.357 156.676 145.569C157.541 152.771 157.071 168.308 157.071 183.309" stroke="black" stroke-width="0.8" stroke-miterlimit="10" stroke-linecap="round"/>
<path d="M139.035 106.127C139.035 106.127 122.54 115.399 123.737 122.934C124.934 130.468 157.073 169.361 157.073 169.361" stroke="black" stroke-width="0.8" stroke-miterlimit="10" stroke-linecap="round"/>
<path d="M166.945 104.088C166.945 104.088 186.852 112.378 186.66 121.092C186.467 129.806 157.521 163.222 157.521 163.222" stroke="black" stroke-width="0.8" stroke-miterlimit="10" stroke-linecap="round"/>
<path d="M230.6 100C230.6 106.407 225.407 111.6 219 111.6C212.593 111.6 207.4 106.407 207.4 100C207.4 93.5935 212.593 88.4 219 88.4C225.407 88.4 230.6 93.5935 230.6 100Z" stroke="black" stroke-width="0.8" stroke-miterlimit="10" stroke-linecap="round"/>
<path d="M216.6 96.5C216.6 97.6598 215.66 98.6 214.5 98.6C213.34 98.6 212.4 97.6598 212.4 96.5C212.4 95.3402 213.34 94.4 214.5 94.4C215.66 94.4 216.6 95.3402 216.6 96.5Z" stroke="black" stroke-width="0.8" stroke-miterlimit="10" stroke-linecap="round"/>
<path d="M217.6 104.5C217.6 105.108 217.108 105.6 216.5 105.6C215.892 105.6 215.4 105.108 215.4 104.5C215.4 103.892 215.892 103.4 216.5 103.4C217.108 103.4 217.6 103.892 217.6 104.5Z" stroke="black" stroke-width="0.8" stroke-miterlimit="10" stroke-linecap="round"/>
<path d="M222.6 100C222.6 100.331 222.331 100.6 222 100.6C221.669 100.6 221.4 100.331 221.4 100C221.4 99.6686 221.669 99.4 222 99.4C222.331 99.4 222.6 99.6686 222.6 100Z" stroke="black" stroke-width="0.8" stroke-miterlimit="10" stroke-linecap="round"/>
<path d="M161.11 101.193V110.25" stroke="black" stroke-width="0.8" stroke-miterlimit="10" stroke-linecap="round"/>
<path d="M258.896 49.5729C258.521 47.6759 257.435 44.3528 253.326 42.4678" stroke="black" stroke-width="0.8" stroke-miterlimit="10" stroke-linecap="round"/>
<path d="M252.812 54.4858C252.264 52.7287 250.898 49.5514 247.186 47.3496" stroke="black" stroke-width="0.8" stroke-miterlimit="10" stroke-linecap="round"/>
<path d="M266.238 35.7559C262.745 36.3177 255.887 40.2097 248.857 45.8434C239.715 53.1709 229.625 65.3383 230.556 66.5002C231.488 67.662 245.563 60.4637 254.706 53.1362C261.739 47.5001 267.048 41.6788 268.354 38.394L266.238 35.7559Z" stroke="black" stroke-width="0.8" stroke-miterlimit="10" stroke-linecap="round" stroke-linejoin="round"/>
<path d="M266.737 36.3344L271.409 32.5894L272.552 34.0142L267.894 37.7473" stroke="black" stroke-width="0.8" stroke-miterlimit="10" stroke-linecap="round" stroke-linejoin="round"/>
<path d="M231.077 66.7332L228.742 68.6051C228.516 68.7856 228.191 68.7558 228.016 68.537C227.84 68.3183 227.882 67.9943 228.107 67.8138L230.413 65.9658" stroke="black" stroke-width="0.8" stroke-miterlimit="10" stroke-linecap="round" stroke-linejoin="round"/>
<mask id="path-18-inside-1" fill="white">
<path d="M252.663 54.4904C253.476 53.8903 253.821 53.5616 254.577 52.9555C256.225 51.6359 257.341 50.7609 258.77 49.4544L258.768 49.3898C258.393 47.4928 257.307 44.1697 253.198 42.2847L253.155 42.3911C251.643 43.4549 250.293 44.4076 248.727 45.6615C248.046 46.2078 247.602 46.527 246.916 47.1198L247.058 47.1677C250.771 49.3695 252.136 52.5467 252.685 54.3039"/>
</mask>
<path d="M252.663 54.4904C253.476 53.8903 253.821 53.5616 254.577 52.9555C256.225 51.6359 257.341 50.7609 258.77 49.4544L258.768 49.3898C258.393 47.4928 257.307 44.1697 253.198 42.2847L253.155 42.3911C251.643 43.4549 250.293 44.4076 248.727 45.6615C248.046 46.2078 247.602 46.527 246.916 47.1198L247.058 47.1677C250.771 49.3695 252.136 52.5467 252.685 54.3039" fill="black"/>
<path d="M254.577 52.9555L254.077 52.3311L254.076 52.3314L254.577 52.9555ZM258.77 49.4544L259.31 50.0448L259.583 49.7948L259.57 49.4248L258.77 49.4544ZM258.768 49.3898L259.567 49.3602L259.565 49.297L259.553 49.235L258.768 49.3898ZM253.198 42.2847L253.532 41.5576L252.771 41.2084L252.457 41.9845L253.198 42.2847ZM253.155 42.3911L253.615 43.0454L253.808 42.9098L253.897 42.6912L253.155 42.3911ZM248.727 45.6615L248.227 45.0372L248.227 45.0373L248.727 45.6615ZM246.916 47.1198L246.393 46.5145L245.332 47.4314L246.661 47.8782L246.916 47.1198ZM247.058 47.1677L247.466 46.4796L247.393 46.4363L247.313 46.4093L247.058 47.1677ZM253.138 55.134C253.964 54.5242 254.365 54.151 255.077 53.5796L254.076 52.3314C253.277 52.9722 252.987 53.2564 252.187 53.8467L253.138 55.134ZM255.077 53.5799C256.718 52.2654 257.858 51.3727 259.31 50.0448L258.23 48.864C256.825 50.1491 255.731 51.0063 254.077 52.3311L255.077 53.5799ZM259.57 49.4248L259.567 49.3602L257.968 49.4194L257.971 49.484L259.57 49.4248ZM259.553 49.235C259.154 47.214 257.972 43.5946 253.532 41.5576L252.865 43.0118C256.642 44.7448 257.633 47.7715 257.983 49.5447L259.553 49.235ZM252.457 41.9845L252.414 42.0909L253.897 42.6912L253.94 42.5848L252.457 41.9845ZM252.695 41.7367C251.182 42.8005 249.814 43.766 248.227 45.0372L249.228 46.2859C250.771 45.0492 252.103 44.1093 253.615 43.0454L252.695 41.7367ZM248.227 45.0373C247.576 45.5592 247.093 45.91 246.393 46.5145L247.439 47.7252C248.112 47.1439 248.516 46.8564 249.228 46.2858L248.227 45.0373ZM246.661 47.8782L246.803 47.926L247.313 46.4093L247.171 46.3615L246.661 47.8782ZM246.65 47.8557C250.128 49.9182 251.404 52.8863 251.922 54.5424L253.449 54.0654C252.868 52.2071 251.414 48.8208 247.466 46.4796L246.65 47.8557Z" fill="black" mask="url(#path-18-inside-1)"/>
<path d="M271.22 32.97L271.862 33.7706L267.822 37.0079C267.771 36.9459 267.713 36.8769 267.653 36.8036C267.502 36.6202 267.33 36.4106 267.171 36.2149L271.22 32.97Z" fill="black" stroke="black" stroke-width="0.8"/>
<path d="M230.375 66.4982L228.364 68.11C228.364 68.11 228.364 68.1101 228.364 68.1101C228.3 68.1614 228.229 68.14 228.201 68.1049L228.201 68.1049L228.2 68.1039C228.171 68.0675 228.167 67.9936 228.229 67.9432C228.229 67.9432 228.229 67.9431 228.229 67.9431L230.235 66.3363L230.375 66.4982Z" fill="black" stroke="black" stroke-width="0.8"/>
<path d="M153.437 204.289C156.945 202.367 163.24 203.761 164.216 205.725" stroke="black" stroke-width="0.8" stroke-miterlimit="10" stroke-linejoin="round"/>
<path d="M34.5 183.5H90" stroke="black" stroke-linecap="round"/>
<path d="M112 183.5H197.5" stroke="black" stroke-width="0.8" stroke-linecap="round"/>
<path d="M220 183.5H274.5" stroke="black" stroke-width="0.8" stroke-linecap="round"/>
<path d="M124.69 156.2L109.715 186.845" stroke="black" stroke-width="0.8" stroke-miterlimit="10" stroke-linecap="round"/>
<path d="M141.234 207.213L142.968 201.703L106.989 185.92" stroke="black" stroke-width="0.8" stroke-miterlimit="10" stroke-linecap="round" stroke-linejoin="round"/>
<path d="M137.376 114.649C142.87 112.241 147.799 110.25 147.799 110.25V101.983" stroke="black" stroke-width="0.8" stroke-miterlimit="10" stroke-linecap="round" stroke-linejoin="round"/>
<path d="M140.244 212.537L137.722 220.552C137.722 220.552 92.8713 208.232 88.165 196.218C88.5369 184.45 102.292 142.291 113.43 127.323C113.978 126.445 118.658 123.361 123.702 120.768" stroke="black" stroke-width="0.8" stroke-miterlimit="10" stroke-linecap="round" stroke-linejoin="round"/>
<path d="M184.716 156.2L199.877 186.845" stroke="black" stroke-width="0.8" stroke-miterlimit="10" stroke-linecap="round"/>
<path d="M186.801 121.042C191.405 123.358 195.099 125.62 196.161 127.323C207.299 142.291 221.054 184.45 221.426 196.218C216.719 208.231 169.708 219.96 169.708 219.96L165.508 202.385L202.601 185.921" stroke="black" stroke-width="0.8" stroke-miterlimit="10" stroke-linecap="round" stroke-linejoin="round"/>
<path d="M161.421 110.329C161.421 110.329 166.706 112.264 173.171 114.927" stroke="black" stroke-width="0.8" stroke-miterlimit="10" stroke-linecap="round" stroke-linejoin="round"/>
<path d="M184.272 150.445L185.619 183.248" stroke="black" stroke-width="0.8" stroke-miterlimit="10" stroke-linecap="round"/>
<path d="M124.886 150.32L123.57 183.154" stroke="black" stroke-width="0.8" stroke-miterlimit="10" stroke-linecap="round"/>
<path d="M153.469 78.7446C153.003 81.7354 150.503 85.0118 150.687 85.4708C150.953 86.1319 152.556 86.9459 152.556 86.9459" stroke="black" stroke-width="0.8" stroke-miterlimit="10" stroke-linecap="round"/>
<path d="M139.574 71.2544C139.574 71.2544 139.653 73.3725 139.841 75.4357" stroke="black" stroke-width="0.8" stroke-miterlimit="10" stroke-linejoin="round"/>
<path d="M180.685 79.8536C183.338 78.1455 190.62 72.7772 187.411 66.1059C186.056 63.3136 184.223 63.6543 182.688 62.1912C180.675 59.9081 183.993 56.371 180.442 52.6201C176.891 48.8691 170.967 41.8775 165.46 45.6225C159.034 49.3484 157.909 48.2295 153.097 45.2986C148.284 42.3676 141.326 46.8274 141.505 52.0523C141.685 57.2759 142.901 56.0005 139.879 60.9827C139.188 62.1231 139.011 64.4588 139.291 65.825" stroke="black" stroke-width="0.8" stroke-miterlimit="10" stroke-linejoin="round"/>
<path d="M174.463 86.7007C174.953 86.1783 176.219 85.0929 177.103 83.9263" stroke="black" stroke-width="0.8" stroke-miterlimit="10" stroke-linejoin="round"/>
<path d="M142.669 70.146L141.237 75.7593L141.22 75.8717C140.862 75.7868 138.146 74.5604 137.065 77.1543C135.939 80.7535 140.057 81.7958 140.057 81.7958L140.071 81.9429C139.117 91.4495 142.488 99.5372 149.136 102.117C156.415 104.943 165.293 99.8695 170.39 91.52C170.39 91.52 174.339 93.0895 175.536 89.513C176.181 86.778 173.423 86.2903 173.29 86.1589L173.288 86.1326C173.829 84.9253 174.604 82.9649 175.216 81.2149" stroke="black" stroke-width="0.8" stroke-miterlimit="10" stroke-linejoin="round"/>
<path d="M177.35 84.1435C177.35 84.1435 172.674 74.4015 157.572 70.4963C148.693 67.9597 142.25 69.944 139.309 71.2756C138.73 70.5859 138.958 66.199 138.958 66.199C138.958 66.199 147.275 58.9779 160.819 62.4492C176.881 66.0185 180.741 80.1439 180.741 80.1439C180.741 80.1439 178.629 82.8801 177.35 84.1435Z" stroke="black" stroke-width="0.8" stroke-miterlimit="10" stroke-linejoin="round"/>
<path d="M173.895 85.9621C174.346 84.9224 174.913 83.492 175.414 82.1092L176.689 83.9399C176.301 84.4201 175.855 84.8848 175.437 85.298C175.243 85.4899 175.049 85.6756 174.871 85.8464C174.729 85.9829 174.597 86.1098 174.482 86.2226C174.274 86.1135 174.079 86.0323 173.92 85.9716C173.911 85.9684 173.903 85.9652 173.895 85.9621ZM173.577 85.8451C173.564 85.8395 173.567 85.8395 173.578 85.8453L173.577 85.8451Z" fill="black" stroke="black" stroke-width="0.8"/>
<path d="M160.994 62.0877C149.92 59.2518 142.243 63.3912 139.678 65.1319C139.632 64.6027 139.638 63.9916 139.703 63.3877C139.796 62.5126 140.004 61.7124 140.305 61.2165L140.306 61.2163C141.801 58.7505 142.318 57.7334 142.376 56.6566C142.401 56.1828 142.337 55.7034 142.258 55.1184C142.25 55.0552 142.241 54.9908 142.232 54.9251C142.141 54.2389 142.034 53.3531 141.989 52.0648C141.906 49.6379 143.487 47.3362 145.72 45.9859C147.949 44.6383 150.728 44.2992 152.973 45.6664C153.223 45.8187 153.464 45.9669 153.697 46.1102C154.577 46.65 155.345 47.1217 156.055 47.4908C156.96 47.9615 157.803 48.2833 158.715 48.3808C160.541 48.5761 162.529 47.8597 165.745 45.9948L165.757 45.9876L165.769 45.9795C168.322 44.2434 170.987 44.9566 173.546 46.6689C175.783 48.1659 177.841 50.3653 179.52 52.1596C179.767 52.4234 180.006 52.6785 180.236 52.9213C181.899 54.6775 181.957 56.3617 181.827 57.9497C181.81 58.1603 181.789 58.3742 181.767 58.589C181.709 59.1709 181.651 59.7588 181.672 60.3016C181.701 61.0713 181.889 61.8205 182.472 62.4819L182.483 62.495L182.496 62.507C182.915 62.9068 183.352 63.1797 183.779 63.4068C183.976 63.5118 184.174 63.6084 184.366 63.7016L184.408 63.7223C184.614 63.823 184.813 63.9207 185.009 64.0275C185.769 64.4419 186.499 64.9985 187.134 66.3058C188.652 69.4608 187.708 72.3113 186.008 74.6312C184.461 76.7415 182.319 78.3656 180.952 79.2812C179.866 76.2466 175.009 65.2047 160.994 62.0877Z" fill="black" stroke="black" stroke-width="0.8"/>
<path d="M142.178 70.8048L141.009 75.3856C140.978 75.3761 140.946 75.3665 140.913 75.3567C140.742 75.3063 140.536 75.2529 140.309 75.2112C140.232 74.2792 140.173 73.3419 140.132 72.614C140.109 72.2122 140.092 71.8746 140.081 71.6377C140.079 71.6099 140.078 71.5836 140.077 71.5587L142.178 70.8048Z" fill="black" stroke="black" stroke-width="0.8"/>
<path d="M109.52 52.2829C118.392 36.0047 119.812 16.9174 108.377 10.6885C91.68 1.59426 62.462 23.291 54.3121 53.8692C48.1064 77.1509 60.7641 87.1751 76.4839 82.3435C88.5676 78.6296 101.908 66.2494 109.52 52.2829Z" stroke="black" stroke-width="0.8" stroke-miterlimit="10" stroke-linecap="round"/>
<path d="M103.385 52.4586C109.027 41.4865 108.69 30.151 100.702 27.9324C90.7283 25.1616 75.4198 37.4032 69.8837 53.422C65.1273 67.1864 71.0782 74.9024 80.7634 72.728C88.8797 70.9063 98.309 62.3297 103.385 52.4586Z" stroke="black" stroke-width="0.8" stroke-miterlimit="10" stroke-linecap="round"/>
<path d="M52.7503 63.1608C48.2054 60.6971 50.9531 45.6501 56.1233 36.1196C61.2935 26.5891 71.2608 16.7598 75.8057 19.2234" stroke="black" stroke-width="0.8" stroke-miterlimit="10" stroke-linecap="round"/>
<mask id="path-47-inside-2" fill="white">
<path d="M75.5427 19.2234C70.9978 16.7598 61.0293 26.588 55.8603 36.1197C50.6914 45.6514 47.9425 60.6972 52.4873 63.1608L52.4945 63.0915C52.6535 60.2956 53.1557 57.2199 54.0489 53.8694C57.789 39.8372 65.9664 27.6745 75.3346 19.4996"/>
</mask>
<path d="M75.5427 19.2234C70.9978 16.7598 61.0293 26.588 55.8603 36.1197C50.6914 45.6514 47.9425 60.6972 52.4873 63.1608L52.4945 63.0915C52.6535 60.2956 53.1557 57.2199 54.0489 53.8694C57.789 39.8372 65.9664 27.6745 75.3346 19.4996" fill="black"/>
<path d="M52.4873 63.1608L52.106 63.8641L53.1597 64.4352L53.283 63.2431L52.4873 63.1608ZM52.4945 63.0915L53.2902 63.1738L53.2921 63.1554L53.2932 63.1369L52.4945 63.0915ZM54.0489 53.8694L54.8219 54.0754L54.8219 54.0754L54.0489 53.8694ZM75.9239 18.5201C74.466 17.7299 72.6986 17.9885 70.9562 18.7508C69.1928 19.5224 67.2865 20.8787 65.4 22.5791C61.622 25.9842 57.7823 30.8974 55.1571 35.7383L56.5636 36.501C59.1074 31.8102 62.8365 27.0435 66.4712 23.7676C68.291 22.1274 70.052 20.8929 71.5975 20.2167C73.164 19.5313 74.3469 19.4852 75.1614 19.9268L75.9239 18.5201ZM55.1571 35.7383C52.5255 40.5909 50.5176 46.826 49.7395 52.1756C49.3507 54.8483 49.2619 57.3458 49.5799 59.3613C49.8917 61.3385 50.6319 63.065 52.106 63.8641L52.8685 62.4575C52.0703 62.0248 51.4497 60.9467 51.1603 59.112C50.877 57.3157 50.9463 54.9941 51.3228 52.4059C52.0751 47.2338 54.0261 41.1801 56.5636 36.501L55.1571 35.7383ZM53.283 63.2431L53.2902 63.1738L51.6987 63.0091L51.6915 63.0784L53.283 63.2431ZM53.2932 63.1369C53.4487 60.4025 53.9407 57.381 54.8219 54.0754L53.2759 53.6633C52.3707 57.0589 51.8583 60.1886 51.6958 63.046L53.2932 63.1369ZM54.8219 54.0754C58.5189 40.2052 66.6059 28.1782 75.8606 20.1023L74.8086 18.8968C65.3268 27.1709 57.0591 39.4692 53.2759 53.6633L54.8219 54.0754Z" fill="black" mask="url(#path-47-inside-2)"/>
<path d="M53.5 183V71.5" stroke="black" stroke-width="0.8" stroke-miterlimit="10" stroke-linecap="round"/>
<path d="M62.5 83V164" stroke="black" stroke-width="0.8" stroke-miterlimit="10" stroke-linecap="round"/>
</svg>
