<svg width="296" height="250" viewBox="0 0 296 250" fill="none" xmlns="http://www.w3.org/2000/svg">
<path d="M101 228C131.928 228 157 202.928 157 172C157 141.072 131.928 116 101 116C70.0721 116 45 141.072 45 172C45 202.928 70.0721 228 101 228Z" fill="#DAF3EC"/>
<path d="M171.232 195.37L168.651 196.229C166.888 196.941 153.397 200.377 153.307 201.6C153.216 202.822 158.524 203.23 158.524 203.23C154.305 205.994 152.064 207.807 146.127 210.771C146.672 212.01 149.261 212.797 156.405 212.934C163.549 213.072 167.315 208.599 170.002 206.537C172.688 204.476 174.564 204.005 174.564 204.005" stroke="black" stroke-width="0.8" stroke-miterlimit="10"/>
<path d="M265.6 57.5C265.6 66.3918 258.392 73.6 249.5 73.6C240.608 73.6 233.4 66.3918 233.4 57.5C233.4 48.6082 240.608 41.4 249.5 41.4C258.392 41.4 265.6 48.6082 265.6 57.5Z" stroke="black" stroke-width="0.8" stroke-miterlimit="10"/>
<path d="M269.6 57.5C269.6 68.6009 260.601 77.6 249.5 77.6C238.399 77.6 229.4 68.6009 229.4 57.5C229.4 46.3991 238.399 37.4 249.5 37.4C260.601 37.4 269.6 46.3991 269.6 57.5Z" stroke="black" stroke-width="0.8" stroke-miterlimit="10"/>
<path d="M250.559 48.416V58.416" stroke="black" stroke-width="0.8" stroke-miterlimit="10" stroke-linecap="round"/>
<path d="M250.559 58.416H243.559" stroke="black" stroke-width="0.8" stroke-miterlimit="10" stroke-linecap="round"/>
<path d="M210.036 99.957C215.826 102.863 220.709 105.613 221.613 107.016C224.05 110.802 240.38 172.377 238.755 177.785C235.851 193.75 175.337 206.451 175.337 206.451L170.248 192.792L218.033 168.854" stroke="black" stroke-width="0.8" stroke-miterlimit="10" stroke-linecap="round" stroke-linejoin="round"/>
<path d="M187.384 81.1777V89.6416C187.384 89.6416 192.03 91.8208 197.349 94.3077" stroke="black" stroke-width="0.8" stroke-miterlimit="10" stroke-linecap="round" stroke-linejoin="round"/>
<path d="M164.634 94.8375C169.973 92.0853 174.687 89.643 174.687 89.643L174.68 83.8789" stroke="black" stroke-width="0.8" stroke-miterlimit="10" stroke-linejoin="round"/>
<path d="M129.167 158.124C131.459 147.94 142.417 108.12 143.131 107.023C143.896 105.85 147.211 103.745 151.416 101.4" stroke="black" stroke-width="0.8" stroke-miterlimit="10" stroke-linejoin="round"/>
<path d="M100 123.6L94 123.6C93.1163 123.6 92.4 122.884 92.4 122L92.4 115C92.4 114.116 93.1163 113.4 94 113.4L100 113.4C100.884 113.4 101.6 114.116 101.6 115L101.6 122C101.6 122.884 100.884 123.6 100 123.6Z" stroke="black" stroke-width="0.8" stroke-miterlimit="10" stroke-linejoin="round"/>
<path d="M99.5 123.5V123.5C99.5 124.909 100.589 126.078 101.994 126.178L102.125 126.188C104.59 126.364 106.5 128.415 106.5 130.886V158.5" stroke="black" stroke-width="0.8"/>
<path d="M94.5 123.5V123.5C94.5 124.909 93.4114 126.078 92.0064 126.178L91.875 126.188C89.4099 126.364 87.5 128.415 87.5 130.886V165.5" stroke="black" stroke-width="0.8"/>
<path d="M67.5 149.5V149.5C67.5 150.909 66.4114 152.078 65.0064 152.178L64.875 152.188C62.4099 152.364 60.5 154.415 60.5 156.886V176.5" stroke="black" stroke-width="0.8"/>
<path d="M71.5 149.5V149.5C71.5 150.909 72.5886 152.078 73.9936 152.178L74.125 152.188C76.5901 152.364 78.5 154.415 78.5 156.886V162" stroke="black" stroke-width="0.8"/>
<path d="M72 149.6L67 149.6C66.1163 149.6 65.4 148.884 65.4 148L65.4 142C65.4 141.116 66.1163 140.4 67 140.4L72 140.4C72.8837 140.4 73.6 141.116 73.6 142L73.6 148C73.6 148.884 72.8837 149.6 72 149.6Z" stroke="black" stroke-width="0.8" stroke-miterlimit="10" stroke-linejoin="round"/>
<path d="M102.4 162C102.4 160.012 104.012 158.4 106 158.4H128C129.988 158.4 131.6 160.012 131.6 162V176.6H102.4V162Z" stroke="black" stroke-width="0.8"/>
<path d="M131 164.5L103 164.5" stroke="black" stroke-width="0.8" stroke-miterlimit="10" stroke-linejoin="round"/>
<path d="M214.067 170.52L209.809 152.601" stroke="black" stroke-width="0.8" stroke-miterlimit="10" stroke-linecap="round"/>
<path d="M188.038 81.1621C188.038 81.1621 199.077 86.1102 198.692 91.1097C198.307 96.1102 179.859 116.287 179.859 116.287" stroke="black" stroke-width="0.8" stroke-miterlimit="10" stroke-linecap="round"/>
<path d="M171.123 81.9146C171.123 81.9146 163.605 85.3523 162.064 89.198C160.524 93.0437 180.487 110.456 181.969 123.173C183.45 135.888 182.178 180.281 181.986 183.36" stroke="black" stroke-width="0.8" stroke-miterlimit="10" stroke-linecap="round"/>
<path d="M165.497 85.2153C165.497 85.2153 150.096 94.1385 151.213 101.39C152.331 108.64 182.614 148.339 182.614 148.339" stroke="black" stroke-width="0.8" stroke-miterlimit="10" stroke-linecap="round"/>
<path d="M194.572 85.04C194.572 85.04 210.143 91.2311 209.963 99.6169C209.783 108.003 182.756 140.162 182.756 140.162" stroke="black" stroke-width="0.8" stroke-miterlimit="10" stroke-linecap="round"/>
<path d="M26.5 183.5H188.5" stroke="black" stroke-linecap="round"/>
<path d="M235.5 183.5H265.5" stroke="black" stroke-width="0.8" stroke-linecap="round"/>
<path d="M54.2617 183.531H54.2613C54.0661 183.531 53.8378 183.449 53.6324 183.292C53.4278 183.135 53.2762 182.928 53.2116 182.719L53.2116 182.719L51.433 176.974C51.433 176.974 51.433 176.974 51.433 176.974C51.3696 176.769 51.4073 176.628 51.4624 176.549C51.5152 176.472 51.6196 176.4 51.8067 176.4H138.203C138.391 176.4 138.492 176.472 138.542 176.545C138.594 176.621 138.631 176.76 138.564 176.965L136.679 182.79L136.679 182.79C136.611 182.998 136.457 183.205 136.249 183.361C136.041 183.518 135.81 183.6 135.613 183.6C135.613 183.6 135.613 183.6 135.613 183.6L54.2617 183.531Z" fill="black" stroke="black" stroke-width="0.8"/>
<path d="M90.6 173C90.6 178.854 85.8542 183.6 80 183.6C74.1458 183.6 69.4 178.854 69.4 173C69.4 167.146 74.1458 162.4 80 162.4C85.8542 162.4 90.6 167.146 90.6 173Z" stroke="black" stroke-width="0.8" stroke-miterlimit="10" stroke-linecap="round"/>
<path d="M208.292 141.22L212.146 171.622" stroke="black" stroke-width="0.8" stroke-miterlimit="10" stroke-linecap="round"/>
<path d="M144.79 183.36L151.993 153.39" stroke="black" stroke-width="0.8" stroke-miterlimit="10" stroke-linecap="round"/>
<path d="M153.349 142.938L148.669 183.336" stroke="black" stroke-width="0.8" stroke-miterlimit="10" stroke-linecap="round"/>
<path d="M101.6 80.5C101.6 81.6598 100.66 82.6 99.5 82.6C98.3402 82.6 97.4 81.6598 97.4 80.5C97.4 79.3402 98.3402 78.4 99.5 78.4C100.66 78.4 101.6 79.3402 101.6 80.5Z" stroke="black" stroke-width="0.8" stroke-miterlimit="10" stroke-linecap="round" stroke-linejoin="bevel"/>
<path d="M120.6 52.5C120.6 53.6598 119.66 54.6 118.5 54.6C117.34 54.6 116.4 53.6598 116.4 52.5C116.4 51.3402 117.34 50.4 118.5 50.4C119.66 50.4 120.6 51.3402 120.6 52.5Z" stroke="black" stroke-width="0.8" stroke-miterlimit="10" stroke-linecap="round" stroke-linejoin="bevel"/>
<path d="M127.6 98C127.6 100.541 125.541 102.6 123 102.6C120.459 102.6 118.4 100.541 118.4 98C118.4 95.4595 120.459 93.4 123 93.4C125.541 93.4 127.6 95.4595 127.6 98Z" stroke="black" stroke-width="0.8" stroke-miterlimit="10" stroke-linecap="round" stroke-linejoin="bevel"/>
<path d="M170.678 66.4517C172.197 68.6766 172.535 72.306 172.938 72.4955C173.519 72.7675 175.085 72.3384 175.085 72.3384" stroke="black" stroke-width="0.8" stroke-miterlimit="10" stroke-linecap="round"/>
<path d="M194.477 61.6742C195.956 59.9564 196.314 55.8097 197.105 53.3842C200.608 47.678 194.798 40.8037 192.436 39.3223C190.074 37.8408 190.411 38.3425 188.536 37.9467C185.906 37.152 186.22 31.3823 181.711 30.1907C177.201 28.9991 170.316 28.4495 167.116 34.2237C163.915 39.9978 165.051 42.2406 159.956 42.2484C154.861 42.2562 151.085 48.2387 153.687 52.0967C156.29 55.9546 153.577 53.6651 153.595 58.8161C153.613 63.9671 162.894 70.0176 162.894 70.0176L159.667 58.6567C159.667 58.6567 159.185 55.3772 161.929 56.648C164.562 57.4439 166.667 60.8816 172.031 58.2643C177.894 54.9592 177.686 47.4172 181.157 46.7595C184.628 46.1019 188.949 48.4148 190.292 53.3853C191.256 56.3782 191.767 59.3255 192.032 61.3487L192.045 61.3676C192.209 61.4055 194.569 60.5015 195.36 62.8624C196.122 66.1118 192.336 66.7482 192.336 66.7482C192.34 75.3972 187.882 83.3171 180.932 84.5421C172.997 85.9411 164.801 78.2452 162.077 67.1328" stroke="black" stroke-width="0.8" stroke-miterlimit="10" stroke-linejoin="round"/>
<path d="M159.282 58.7635L162.205 69.0502C162.047 68.9365 161.872 68.8089 161.683 68.6684C160.82 68.0264 159.671 67.1185 158.524 66.0529C157.374 64.9858 156.236 63.7699 155.387 62.513C154.534 61.2504 153.999 59.9856 153.995 58.8122C153.99 57.5591 154.152 56.7863 154.343 56.2723C154.494 55.8647 154.661 55.615 154.82 55.3772C154.864 55.3127 154.906 55.2491 154.948 55.1835C155.044 55.0319 155.141 54.8565 155.187 54.6432C155.235 54.4237 155.223 54.196 155.154 53.9422C155.022 53.4619 154.666 52.8309 154.019 51.8707L154.019 51.8706C152.832 50.1108 153.075 47.8279 154.273 45.9406C155.468 44.0559 157.569 42.6496 159.957 42.6459C161.252 42.6439 162.204 42.5013 162.941 42.1646C163.694 41.8201 164.185 41.2904 164.591 40.5983C164.927 40.0269 165.216 39.3208 165.551 38.5058C165.61 38.3615 165.67 38.2138 165.733 38.0629C166.154 37.0465 166.676 35.8395 167.466 34.4151C168.994 31.6581 171.394 30.4078 173.987 29.9874C176.593 29.5647 179.38 29.9861 181.609 30.575C183.679 31.1221 184.66 32.7113 185.468 34.3886C185.574 34.6101 185.679 34.8357 185.784 35.0609C186.064 35.6661 186.344 36.2676 186.653 36.7735C187.083 37.4763 187.624 38.0863 188.421 38.3272L188.437 38.3321L188.454 38.3357C188.939 38.438 189.282 38.4825 189.557 38.5151C189.586 38.5185 189.614 38.5218 189.641 38.5249C189.874 38.5522 190.035 38.571 190.208 38.6134C190.583 38.7055 191.04 38.9165 192.224 39.6587C193.334 40.3548 195.33 42.384 196.612 44.9455C197.891 47.5007 198.413 50.486 196.764 53.1724L196.739 53.2128L196.725 53.2579C196.46 54.0713 196.239 55.0882 196.015 56.1214C195.9 56.651 195.784 57.1849 195.661 57.6979C195.31 59.1576 194.901 60.45 194.305 61.2469L192.392 61.0057C192.369 60.8684 192.339 60.6873 192.301 60.4705C192.212 59.9537 192.082 59.2334 191.923 58.419C191.605 56.7981 191.164 54.7879 190.676 53.2692C189.281 48.1222 184.776 45.6644 181.083 46.3641C180.06 46.5578 179.342 47.2575 178.756 48.1474C178.266 48.893 177.833 49.8268 177.38 50.8048C177.297 50.9844 177.213 51.1654 177.128 51.3471C176.016 53.7212 174.649 56.322 171.845 57.9076C169.27 59.1609 167.526 58.9505 166.109 58.3641C165.435 58.085 164.829 57.7185 164.22 57.3499C164.171 57.3198 164.121 57.2896 164.071 57.2595C163.432 56.8736 162.775 56.488 162.072 56.2709C161.352 55.9425 160.756 55.8679 160.276 56.0491C159.781 56.2363 159.522 56.6531 159.39 57.0458C159.258 57.4369 159.232 57.8578 159.235 58.1649C159.236 58.3216 159.245 58.4558 159.253 58.5516C159.258 58.5996 159.262 58.6383 159.265 58.6657L159.269 58.6981L159.271 58.7077L159.271 58.7106L159.271 58.7117L159.271 58.7121C159.271 58.7123 159.271 58.7124 159.667 58.6542L159.271 58.7124L159.275 58.7383L159.282 58.7635Z" fill="black" stroke="black" stroke-width="0.8"/>
<path d="M120.191 219.525L120.672 217.456L115.502 218.44" stroke="black" stroke-width="0.8" stroke-miterlimit="10" stroke-linecap="round" stroke-linejoin="round"/>
<path d="M156.017 199.845C139.542 193.453 131.304 190.462 131.304 190.462C131.304 190.462 105.862 193.775 85.582 212.92L120.611 227.279C120.611 227.279 132.564 217.193 146.801 210.424" stroke="black" stroke-width="0.8" stroke-miterlimit="10" stroke-linejoin="round"/>
<path d="M156.448 200.013C156.304 199.958 156.16 199.902 156.017 199.846" stroke="black" stroke-width="0.8" stroke-miterlimit="10" stroke-linejoin="round"/>
<path d="M97.8027 209.202L113.831 215.963" stroke="black" stroke-width="0.8" stroke-miterlimit="10" stroke-linecap="round"/>
<path d="M106.494 209.314L116.654 213.822" stroke="black" stroke-width="0.8" stroke-miterlimit="10" stroke-linecap="round"/>
<path d="M133.273 212.437L133.754 210.368L128.583 211.353" stroke="black" stroke-width="0.8" stroke-miterlimit="10" stroke-linecap="round" stroke-linejoin="round"/>
<path d="M110.884 202.113L126.912 208.876" stroke="black" stroke-width="0.8" stroke-miterlimit="10" stroke-linecap="round"/>
<path d="M119.575 202.226L129.735 206.735" stroke="black" stroke-width="0.8" stroke-miterlimit="10" stroke-linecap="round"/>
<path d="M145.225 205.461L145.706 203.392L140.535 204.377" stroke="black" stroke-width="0.8" stroke-miterlimit="10" stroke-linecap="round" stroke-linejoin="round"/>
<path d="M124.868 196.153L138.866 201.9" stroke="black" stroke-width="0.8" stroke-miterlimit="10" stroke-linecap="round"/>
<path d="M132.77 195.589L141.686 199.759" stroke="black" stroke-width="0.8" stroke-miterlimit="10" stroke-linecap="round"/>
</svg>
