<svg width="296" height="250" viewBox="0 0 296 250" fill="none" xmlns="http://www.w3.org/2000/svg">
<path d="M142 250C172.928 250 198 224.928 198 194C198 163.072 172.928 138 142 138C111.072 138 86 163.072 86 194C86 224.928 111.072 250 142 250Z" fill="#DAF3EC"/>
<path d="M79.3365 207.231C83.8138 210.042 90.1871 212.77 92.5138 216.346C94.8394 219.921 95.139 224.851 91.8567 225.099C90.2964 224.767 87.3148 225.343 83.3579 222.438C80.9546 220.674 79.7574 218.052 76.2772 215.178C75.5512 214.809 74.799 214.651 74.1396 214.263" stroke="black" stroke-width="0.8" stroke-miterlimit="10"/>
<path d="M135.103 198.95L127.73 187.502L158.686 171.3C165.754 151.212 170.996 128.71 174.816 124.351C178.635 119.993 206.079 105.091 206.079 105.091V98.23" stroke="black" stroke-width="0.8" stroke-miterlimit="10" stroke-linecap="round" stroke-linejoin="round"/>
<path d="M183.927 164.945C181.312 173.418 176.686 183.166 173.687 185.039C171.511 186.908 166.734 189.391 161.176 192.066" stroke="black" stroke-width="0.8" stroke-miterlimit="10" stroke-linecap="round" stroke-linejoin="round"/>
<path d="M184.879 149.219L183.061 182.684" stroke="black" stroke-width="0.8" stroke-miterlimit="10" stroke-linecap="round"/>
<path d="M224.503 109.259L208.47 158.503V182.5" stroke="black" stroke-width="0.8" stroke-miterlimit="10"/>
<path d="M233.564 114.488C231.653 118.297 222.452 132.993 222.452 132.993L225.15 134.185L208.462 158.749" stroke="black" stroke-width="0.8" stroke-miterlimit="10" stroke-linejoin="round"/>
<path d="M197.291 110.278L210.863 151.182" stroke="black" stroke-width="0.8" stroke-miterlimit="10"/>
<path d="M189.301 114.965C191.211 118.774 199.739 133.246 199.739 133.246L196.406 134.676L209.979 154.056" stroke="black" stroke-width="0.8" stroke-miterlimit="10" stroke-linejoin="round"/>
<path d="M230.027 161.586L219.415 161.122L219.973 149.414L230.585 149.878L230.027 161.586Z" stroke="black" stroke-width="0.8" stroke-miterlimit="10"/>
<path d="M193.855 204.922L191.399 206.173C189.765 206.835 175.593 208.072 175.196 211.091C175.112 212.228 181.387 211.727 181.387 211.727C176.942 214.109 175.064 215.169 169.56 217.921C170.065 219.071 173.617 220.046 179.174 220.65C184.73 221.254 189.834 217.263 192.324 215.347C194.813 213.432 197.875 211.98 197.875 211.98" stroke="black" stroke-width="0.8" stroke-miterlimit="10" stroke-linejoin="round"/>
<path d="M236.262 150.864L236.47 179.974" stroke="black" stroke-width="0.8" stroke-miterlimit="10" stroke-linecap="round"/>
<path d="M216.208 73.0811C206.364 72.4684 200.893 70.8185 197.687 67.8655L197.052 65.0854C196.049 67.9782 195.714 72.5351 195.64 75.9826C195.379 88.2638 201.858 98.3535 210.112 98.5187C218.249 98.6817 224.177 89.6172 224.62 77.5811C224.621 77.5822 221.658 73.6106 216.208 73.0811Z" stroke="black" stroke-width="0.8" stroke-miterlimit="10" stroke-linejoin="round"/>
<path d="M238.424 117.359C239.033 115.022 240.022 111.165 240.815 107.758C242.054 102.432 235.988 98.7428 233.977 92.6093C231.966 86.4759 234.059 86.8271 231.818 70.1695C229.578 53.512 218.309 55.5295 216.05 51.7428C213.792 49.4967 205.655 47.2647 201.001 49.6706C196.346 52.0765 191.273 61.0623 189.271 64.2374C187.269 67.4124 188.79 76.5185 189.216 79.2472C189.643 81.977 190.007 90.408 186.447 99.1892C182.887 107.97 184.694 112.59 184.694 112.59L185.523 117.019" stroke="black" stroke-width="0.8" stroke-miterlimit="10"/>
<path d="M211.699 168.639C212.256 168.639 212.708 168.187 212.708 167.63C212.708 167.073 212.256 166.622 211.699 166.622C211.143 166.622 210.691 167.073 210.691 167.63C210.691 168.187 211.143 168.639 211.699 168.639Z" fill="black"/>
<path d="M211.699 178.779C212.256 178.779 212.708 178.328 212.708 177.77C212.708 177.213 212.256 176.762 211.699 176.762C211.143 176.762 210.691 177.213 210.691 177.77C210.691 178.328 211.143 178.779 211.699 178.779Z" fill="black"/>
<path d="M70.3352 101.383V109.715C70.3352 109.715 42.827 118.04 38.8723 123.781C34.9186 129.522 25.7857 178.564 27.1251 183.031C28.4645 187.499 72.0496 217.343 72.0496 217.343L80.7802 205.588L45.0586 176.965" stroke="black" stroke-width="0.8" stroke-miterlimit="10" stroke-linecap="round" stroke-linejoin="bevel"/>
<path d="M81.4961 109.715C81.4961 109.715 106.641 116.239 111.418 124.258C116.195 132.276 121.673 163.146 127.187 182.926" stroke="black" stroke-width="0.8" stroke-miterlimit="10"/>
<path d="M46.7158 178.147C46.7158 178.147 50.5798 160.497 53.1197 149.219" stroke="black" stroke-width="0.8" stroke-miterlimit="10" stroke-linecap="round"/>
<path d="M70.335 109.715C70.335 109.715 76.4414 114.648 81.3824 109.715V103.55" stroke="black" stroke-width="0.8" stroke-miterlimit="10"/>
<path d="M217.239 96.3755V105.433C221.085 107.357 249.441 122.964 251.502 126.243C253.563 129.522 259.048 164.681 256.507 192.002C250.916 199.733 200.118 216.782 200.118 216.782L191.973 201.775L238.684 179.046" stroke="black" stroke-width="0.8" stroke-miterlimit="10" stroke-linecap="round" stroke-linejoin="round"/>
<path d="M106.888 182.881L98.4082 152.427L98.9297 182.713" stroke="black" stroke-width="0.8" stroke-miterlimit="10" stroke-linejoin="round"/>
<path d="M199.076 115.918C203.473 117.699 212.562 120.328 222.262 116.264" stroke="black" stroke-width="0.8" stroke-miterlimit="10"/>
<path d="M85.6946 86.6631C84.2394 88.9279 83.9387 92.6051 83.5494 92.7998C82.9885 93.0799 81.4688 92.6576 81.4688 92.6576" stroke="black" stroke-width="0.8" stroke-miterlimit="10" stroke-linecap="round"/>
<path d="M203.729 80.7285C204.851 83.3467 204.521 87.2373 204.894 87.5086C205.43 87.8992 207.091 87.7241 207.091 87.7241" stroke="black" stroke-width="0.8" stroke-miterlimit="10" stroke-linecap="round"/>
<path d="M62.7057 81.095C61.2602 79.3674 59.4748 76.8926 58.6919 74.444C56.9086 70.2241 56.6178 66.618 60.0739 64.1967C63.529 61.7755 62.2399 59.967 64.5174 58.4484C66.7938 56.9298 67.9692 59.0206 69.782 58.6059C72.323 57.781 70.4621 51.5709 74.8192 50.3291C79.1762 49.0873 84.2091 48.3401 87.3514 54.1606C90.4938 59.9812 93.0205 58.339 97.9549 58.3072C102.889 58.2755 107.917 66.1059 105.425 70.0315C102.933 73.9571 104.046 74.7143 104.066 79.9287C104.085 85.1431 93.3486 89.2985 93.3486 89.2985L96.3903 77.7701C96.3903 77.7701 96.8331 74.4462 94.185 75.7536C91.6407 76.5797 89.1751 79.1388 83.9608 76.5293C78.26 73.2274 77.5078 66.7153 74.1413 66.0764C70.7748 65.4374 67.9593 67.6245 66.6954 72.6683C65.7846 75.7055 65.3112 78.6935 65.0706 80.7449L65.0575 80.7646C64.899 80.804 62.6073 79.9079 61.8583 82.304C61.1443 85.6005 64.8148 86.2153 64.8148 86.2153C64.8738 94.9725 69.2484 102.957 75.9869 104.144C83.6809 105.5 91.5609 97.6453 94.1161 86.3729" stroke="black" stroke-width="0.8" stroke-miterlimit="10" stroke-linejoin="round"/>
<mask id="path-27-inside-1" fill="white">
<path d="M217.266 96.1213V105.434C219.485 106.545 229.774 112.094 238.53 117.288L238.469 117.419C239.078 115.082 240.068 111.225 240.861 107.818C242.099 102.492 236.033 98.8029 234.023 92.6694C232.012 86.5359 234.105 86.8871 231.864 70.2296C229.624 53.572 218.355 55.5895 216.096 51.8029C213.838 49.5567 205.701 47.3248 201.047 49.7307C196.392 52.1366 191.319 61.1224 189.317 64.2974C187.315 67.4725 188.836 76.5786 189.262 79.3073C189.689 82.037 190.053 90.4681 186.493 99.2493C182.933 108.03 184.74 112.65 184.74 112.65L185.569 117.079L185.546 117.033C194.697 111.431 206.108 105.09 206.108 105.09V97.6103L206.102 97.6092C199.876 94.8532 195.452 86.1727 195.669 75.9834C195.743 72.5359 196.078 67.979 197.081 65.0863L197.716 67.8663C200.921 70.8193 206.392 72.4692 216.237 73.0819C221.687 73.6114 224.65 77.583 224.65 77.583C224.352 85.7099 221.552 92.4812 217.259 95.9736"/>
</mask>
<path d="M217.266 96.1213V105.434C219.485 106.545 229.774 112.094 238.53 117.288L238.469 117.419C239.078 115.082 240.068 111.225 240.861 107.818C242.099 102.492 236.033 98.8029 234.023 92.6694C232.012 86.5359 234.105 86.8871 231.864 70.2296C229.624 53.572 218.355 55.5895 216.096 51.8029C213.838 49.5567 205.701 47.3248 201.047 49.7307C196.392 52.1366 191.319 61.1224 189.317 64.2974C187.315 67.4725 188.836 76.5786 189.262 79.3073C189.689 82.037 190.053 90.4681 186.493 99.2493C182.933 108.03 184.74 112.65 184.74 112.65L185.569 117.079L185.546 117.033C194.697 111.431 206.108 105.09 206.108 105.09V97.6103L206.102 97.6092C199.876 94.8532 195.452 86.1727 195.669 75.9834C195.743 72.5359 196.078 67.979 197.081 65.0863L197.716 67.8663C200.921 70.8193 206.392 72.4692 216.237 73.0819C221.687 73.6114 224.65 77.583 224.65 77.583C224.352 85.7099 221.552 92.4812 217.259 95.9736" fill="black"/>
<path d="M217.266 105.434H216.466V105.928L216.908 106.15L217.266 105.434ZM238.53 117.288L239.257 117.621L239.557 116.967L238.938 116.6L238.53 117.288ZM238.469 117.419L237.695 117.217L239.197 117.752L238.469 117.419ZM240.861 107.818L241.64 107.999L241.64 107.999L240.861 107.818ZM216.096 51.8029L216.783 51.393L216.731 51.3067L216.66 51.2357L216.096 51.8029ZM189.262 79.3073L190.053 79.1838L190.053 79.1837L189.262 79.3073ZM184.74 112.65L185.526 112.503L185.512 112.428L185.485 112.358L184.74 112.65ZM185.569 117.079L184.853 117.436L186.355 116.931L185.569 117.079ZM185.546 117.033L185.128 116.35L184.502 116.734L184.83 117.39L185.546 117.033ZM206.108 105.09L206.496 105.789L206.908 105.56V105.09H206.108ZM206.108 97.6103H206.908V96.9544L206.265 96.8258L206.108 97.6103ZM206.102 97.6092L205.779 98.3408L205.859 98.3764L205.946 98.3937L206.102 97.6092ZM195.669 75.9834L196.469 76.0005L196.469 76.0004L195.669 75.9834ZM197.081 65.0863L197.861 64.9081L197.239 62.1871L196.325 64.8243L197.081 65.0863ZM197.716 67.8663L196.936 68.0445L196.992 68.2865L197.174 68.4547L197.716 67.8663ZM216.237 73.0819L216.314 72.2856L216.3 72.2843L216.287 72.2834L216.237 73.0819ZM224.65 77.583L225.45 77.6123L225.46 77.3306L225.292 77.1046L224.65 77.583ZM216.466 96.1213V105.434H218.066V96.1213H216.466ZM216.908 106.15C219.106 107.25 229.378 112.789 238.121 117.976L238.938 116.6C230.17 111.399 219.864 105.84 217.624 104.719L216.908 106.15ZM237.802 116.954L237.742 117.086L239.197 117.752L239.257 117.621L237.802 116.954ZM239.244 117.621C239.853 115.282 240.845 111.417 241.64 107.999L240.082 107.637C239.291 111.033 238.304 114.882 237.695 117.217L239.244 117.621ZM241.64 107.999C242.344 104.972 240.938 102.456 239.32 100.094C237.654 97.6614 235.742 95.345 234.783 92.4202L233.263 92.9186C234.314 96.1273 236.441 98.7223 238 100.999C239.608 103.346 240.616 105.339 240.081 107.637L241.64 107.999ZM234.783 92.4202C233.818 89.4755 233.838 88.1317 233.83 85.3936C233.821 82.6043 233.783 78.4923 232.657 70.1229L231.072 70.3362C232.186 78.6244 232.222 82.6656 232.23 85.3984C232.238 88.1825 232.217 89.7299 233.263 92.9186L234.783 92.4202ZM232.657 70.1229C232.085 65.8683 230.929 62.7554 229.448 60.4262C227.964 58.0924 226.178 56.5833 224.402 55.5057C222.649 54.4418 220.877 53.7861 219.513 53.2017C218.072 52.5848 217.196 52.0852 216.783 51.393L215.409 52.2127C216.125 53.4139 217.504 54.0821 218.883 54.6725C220.337 55.2953 221.945 55.8863 223.572 56.8736C225.176 57.8471 226.768 59.1936 228.098 61.2848C229.431 63.3806 230.524 66.2621 231.072 70.3362L232.657 70.1229ZM216.66 51.2357C215.991 50.5706 214.953 49.9617 213.758 49.4563C212.548 48.9448 211.118 48.5145 209.616 48.2357C206.645 47.6841 203.237 47.698 200.679 49.02L201.414 50.4413C203.511 49.3574 206.499 49.2843 209.324 49.8088C210.72 50.068 212.039 50.4665 213.135 50.93C214.246 51.3997 215.071 51.9121 215.532 52.37L216.66 51.2357ZM200.679 49.02C198.162 50.3212 195.633 53.3213 193.536 56.261C191.418 59.2297 189.621 62.3155 188.64 63.8707L189.994 64.7241C191.015 63.1042 192.755 60.1097 194.838 57.1902C196.942 54.2418 199.277 51.5461 201.414 50.4413L200.679 49.02ZM188.64 63.8707C188.039 64.8245 187.744 66.1399 187.608 67.52C187.47 68.9214 187.487 70.489 187.58 72.0183C187.766 75.0772 188.26 78.074 188.472 79.4308L190.053 79.1837C189.838 77.8118 189.358 74.8913 189.177 71.9212C189.087 70.4359 189.073 68.9612 189.2 67.6769C189.329 66.3713 189.594 65.3579 189.994 64.7241L188.64 63.8707ZM188.472 79.4307C188.881 82.0525 189.245 90.3314 185.751 98.9487L187.234 99.5498C190.861 90.6048 190.496 82.0215 190.053 79.1838L188.472 79.4307ZM185.751 98.9487C183.934 103.43 183.474 106.883 183.481 109.245C183.485 110.425 183.605 111.328 183.729 111.947C183.79 112.257 183.853 112.495 183.902 112.661C183.927 112.744 183.948 112.809 183.964 112.856C183.972 112.879 183.979 112.898 183.984 112.912C183.987 112.919 183.989 112.925 183.991 112.93C183.992 112.933 183.992 112.935 183.993 112.937C183.994 112.937 183.994 112.938 183.994 112.939C183.994 112.939 183.995 112.94 183.995 112.94C183.995 112.941 183.995 112.941 184.74 112.65C185.485 112.358 185.485 112.359 185.485 112.359C185.485 112.359 185.486 112.36 185.486 112.36C185.486 112.36 185.486 112.361 185.486 112.361C185.486 112.362 185.487 112.362 185.487 112.363C185.487 112.363 185.487 112.362 185.486 112.36C185.484 112.356 185.481 112.348 185.477 112.336C185.468 112.31 185.454 112.267 185.436 112.207C185.401 112.086 185.35 111.895 185.298 111.634C185.194 111.113 185.085 110.313 185.081 109.24C185.075 107.097 185.491 103.849 187.234 99.5498L185.751 98.9487ZM183.954 112.797L184.782 117.226L186.355 116.931L185.526 112.503L183.954 112.797ZM186.284 116.721L186.261 116.675L184.83 117.39L184.853 117.436L186.284 116.721ZM185.963 117.715C190.529 114.92 195.662 111.939 199.656 109.655C201.652 108.513 203.363 107.546 204.574 106.865C205.18 106.525 205.661 106.255 205.99 106.071C206.155 105.979 206.281 105.909 206.367 105.861C206.41 105.837 206.442 105.819 206.464 105.807C206.475 105.801 206.483 105.796 206.488 105.793C206.491 105.792 206.493 105.791 206.494 105.79C206.495 105.79 206.496 105.789 206.496 105.789C206.496 105.789 206.496 105.789 206.496 105.789C206.496 105.789 206.496 105.789 206.108 105.09C205.719 104.39 205.719 104.39 205.719 104.39C205.719 104.39 205.719 104.39 205.719 104.391C205.718 104.391 205.718 104.391 205.717 104.391C205.716 104.392 205.713 104.393 205.711 104.395C205.705 104.398 205.697 104.403 205.686 104.409C205.664 104.421 205.631 104.439 205.588 104.463C205.502 104.511 205.375 104.582 205.209 104.675C204.879 104.859 204.397 105.129 203.79 105.471C202.576 106.153 200.862 107.122 198.861 108.266C194.862 110.553 189.714 113.543 185.128 116.35L185.963 117.715ZM206.908 105.09V97.6103H205.308V105.09H206.908ZM206.265 96.8258L206.259 96.8247L205.946 98.3937L205.951 98.3948L206.265 96.8258ZM206.426 96.8777C200.613 94.3048 196.255 86.0202 196.469 76.0005L194.87 75.9663C194.648 86.3252 199.138 95.4016 205.779 98.3408L206.426 96.8777ZM196.469 76.0004C196.542 72.552 196.88 68.1096 197.837 65.3482L196.325 64.8243C195.277 67.8484 194.943 72.5199 194.87 75.9664L196.469 76.0004ZM196.301 65.2645L196.936 68.0445L198.496 67.6881L197.861 64.9081L196.301 65.2645ZM197.174 68.4547C200.599 71.6107 206.324 73.2665 216.187 73.8803L216.287 72.2834C206.46 71.6719 201.243 70.0279 198.258 67.278L197.174 68.4547ZM216.159 73.8781C218.703 74.1252 220.671 75.1754 222.01 76.1726C222.679 76.6708 223.186 77.1524 223.523 77.5062C223.692 77.6829 223.817 77.827 223.899 77.9244C223.939 77.9731 223.969 78.0101 223.987 78.0335C223.997 78.0452 224.003 78.0535 224.007 78.0583C224.009 78.0606 224.01 78.0621 224.01 78.0626C224.01 78.0629 224.01 78.0629 224.01 78.0627C224.01 78.0626 224.01 78.0624 224.01 78.0622C224.01 78.0621 224.01 78.0619 224.009 78.0618C224.009 78.0616 224.009 78.0614 224.65 77.583C225.292 77.1046 225.291 77.1043 225.291 77.104C225.291 77.1039 225.291 77.1036 225.291 77.1034C225.29 77.1029 225.29 77.1024 225.289 77.1018C225.289 77.1006 225.288 77.0992 225.286 77.0976C225.284 77.0943 225.281 77.09 225.277 77.0849C225.269 77.0745 225.258 77.0605 225.244 77.043C225.216 77.008 225.177 76.9591 225.126 76.8981C225.024 76.7763 224.876 76.606 224.681 76.402C224.293 75.9946 223.718 75.4503 222.965 74.8894C221.46 73.7684 219.221 72.5681 216.314 72.2856L216.159 73.8781ZM223.851 77.5536C223.557 85.5485 220.804 92.0584 216.754 95.353L217.764 96.5941C222.3 92.9041 225.146 85.8713 225.45 77.6123L223.851 77.5536Z" fill="black" mask="url(#path-27-inside-1)"/>
<path d="M63.987 80.3159C63.5741 80.2957 63.0548 80.3397 62.5634 80.5985C61.1822 78.9063 59.5999 76.6299 58.8874 74.4013L58.8818 74.3841L58.8748 74.3674C57.992 72.2783 57.5024 70.3927 57.6313 68.7564C57.7581 67.147 58.4849 65.7474 60.1179 64.6035L60.1179 64.6034C61.9219 63.3393 62.505 62.2135 62.9208 61.2173C62.9607 61.1217 62.9987 61.0287 63.0357 60.9379C63.3731 60.1114 63.6331 59.4741 64.5538 58.8603L64.5538 58.8602C65.0713 58.5151 65.5031 58.389 65.8808 58.3692C66.264 58.3491 66.624 58.4365 67.0061 58.5699C67.1515 58.6207 67.293 58.6754 67.4409 58.7326C67.4902 58.7517 67.5402 58.771 67.5913 58.7906C67.7909 58.867 68.0016 58.9445 68.2197 59.0065C68.6606 59.1319 69.1457 59.1985 69.6856 59.075L69.703 59.071L69.7199 59.0655C70.5346 58.801 70.9551 58.109 71.2203 57.3504C71.4127 56.8003 71.5459 56.1441 71.6788 55.4893C71.7265 55.2539 71.7743 55.0187 71.8247 54.7886C72.2209 52.9817 72.8046 51.3454 74.7432 50.7929C76.9151 50.1739 79.1866 49.7009 81.2861 50.0696C83.3532 50.4325 85.2968 51.6198 86.8139 54.4298C88.415 57.3956 89.9146 58.5561 91.7207 58.9006C92.5962 59.0676 93.5178 59.0371 94.5003 58.9694C94.7295 58.9536 94.9623 58.9358 95.1996 58.9176C95.9919 58.857 96.8355 58.7924 97.772 58.7863C100.039 58.7723 102.423 60.5873 103.952 62.9803C104.709 64.1648 105.234 65.4586 105.422 66.6792C105.61 67.9008 105.458 69.0202 104.902 69.8963L104.902 69.8963C103.63 71.9003 103.251 73.1415 103.218 74.5671C103.204 75.1935 103.256 75.8525 103.316 76.6074C103.322 76.6856 103.329 76.7648 103.335 76.8451C103.403 77.7073 103.475 78.7206 103.48 80.0093C103.485 81.1725 102.888 82.3176 101.916 83.4051C100.947 84.4889 99.641 85.4742 98.3157 86.3097C96.9932 87.1435 95.6675 87.818 94.6708 88.2846C94.3196 88.449 94.0098 88.5873 93.7562 88.6973L96.5915 77.9512L96.598 77.9269L96.6013 77.902L96.2048 77.8492C96.6013 77.902 96.6013 77.9018 96.6013 77.9017L96.6014 77.9013L96.6015 77.9002L96.6019 77.8973L96.6031 77.8878L96.6068 77.8551C96.6098 77.8276 96.6136 77.7886 96.6174 77.7402C96.625 77.6436 96.6325 77.5083 96.6326 77.3504C96.6327 77.0407 96.6044 76.6174 96.475 76.2253C96.346 75.8344 96.0936 75.4116 95.6053 75.2231C95.1297 75.0394 94.5439 75.1229 93.8485 75.4612C93.2846 75.647 92.7245 75.9127 92.168 76.1767C92.0758 76.2204 91.9836 76.2641 91.8916 76.3074C91.2244 76.6212 90.5425 76.9235 89.787 77.122C88.3021 77.5122 86.4848 77.5144 83.9653 76.2562C81.2147 74.6593 79.6479 72.2872 78.3296 70.1718C78.2614 70.0624 78.1938 69.9534 78.1265 69.8451C77.5498 68.9163 77.0023 68.0345 76.4146 67.3364C75.7536 66.5512 75.0007 65.9467 74.0303 65.7625C72.2332 65.4214 70.5633 65.8367 69.1843 67.0165C67.8191 68.1845 66.7684 70.0753 66.1241 72.6413C65.2634 75.514 64.791 78.3382 64.536 80.3798C64.3837 80.3529 64.1955 80.3261 63.987 80.3159Z" fill="black" stroke="black" stroke-width="0.8"/>
<path d="M248 44.5H266" stroke="black" stroke-width="0.8" stroke-miterlimit="10" stroke-linecap="round" stroke-linejoin="bevel"/>
<path d="M248 37.5H261" stroke="black" stroke-width="0.8" stroke-miterlimit="10" stroke-linecap="round" stroke-linejoin="bevel"/>
<path d="M266 37.5H285" stroke="black" stroke-width="0.8" stroke-miterlimit="10" stroke-linecap="round" stroke-linejoin="bevel"/>
<path d="M271 44.5H285.5" stroke="black" stroke-width="0.8" stroke-miterlimit="10" stroke-linecap="round" stroke-linejoin="bevel"/>
<path d="M35.6 72C35.6 78.4065 30.4065 83.6 24 83.6C17.5935 83.6 12.4 78.4065 12.4 72C12.4 65.5935 17.5935 60.4 24 60.4C30.4065 60.4 35.6 65.5935 35.6 72Z" stroke="black" stroke-width="0.8" stroke-miterlimit="10"/>
<path d="M9.68844 84.5233C8.27463 85.3543 6.85177 86.1935 5.66804 86.8976L13.9731 78.5926L15.8899 80.8927L15.7338 80.9838C15.3741 81.1937 14.8599 81.4939 14.2417 81.8552C13.0053 82.5778 11.3528 83.545 9.68844 84.5233Z" fill="black" stroke="black" stroke-width="0.8"/>
<path d="M26.5 75.5L21.5 69.5" stroke="black" stroke-width="0.8" stroke-miterlimit="10" stroke-linecap="round"/>
<path d="M21 75L27 70" stroke="black" stroke-width="0.8" stroke-miterlimit="10" stroke-linecap="round"/>
<path d="M130.27 191.87C120.746 194.65 116.22 198.34 115.753 200.706C115.287 203.071 114.951 206.563 115.111 207.834" stroke="black" stroke-width="0.8" stroke-miterlimit="10" stroke-linecap="round" stroke-linejoin="round"/>
<path d="M122.557 199.696C120.668 203.722 117.33 204.267 117.117 206.242C117.282 208.519 124.035 205.017 124.035 205.017C129.258 202.496 132.621 198.855 133.921 197.43" stroke="black" stroke-width="0.8" stroke-miterlimit="10" stroke-linecap="round"/>
<path d="M183.371 207.676L158.556 190.603C157.812 190.092 156.526 189.964 155.697 190.318L129.732 201.434" stroke="black" stroke-width="0.8" stroke-miterlimit="10"/>
<path d="M117.487 206.95L111.966 209.351C111.138 209.711 111.012 210.499 111.683 211.101L136.098 233.01C136.769 233.613 137.978 233.771 138.782 233.363L180.874 212.003" stroke="black" stroke-width="0.8" stroke-miterlimit="10"/>
<path d="M116.3 210.37C116.024 210.49 115.985 210.749 116.213 210.944L137.783 229.505C138.011 229.7 138.417 229.751 138.686 229.616L174.798 211.517C175.067 211.382 175.307 211.047 175.331 210.774C175.355 210.5 176.481 209.621 176.234 209.451L154.243 194.377C153.995 194.206 153.567 194.164 153.291 194.285L116.3 210.37Z" stroke="black" stroke-width="0.8" stroke-miterlimit="10"/>
<path d="M168.443 199.788C168.443 199.799 168.421 199.922 168.125 200.067C167.856 200.198 167.456 200.291 166.993 200.291C166.529 200.291 166.129 200.198 165.86 200.067C165.564 199.922 165.543 199.799 165.543 199.788C165.543 199.777 165.564 199.654 165.86 199.509C166.129 199.378 166.529 199.285 166.993 199.285C167.456 199.285 167.856 199.378 168.125 199.509C168.421 199.654 168.443 199.777 168.443 199.788Z" fill="black" stroke="black" stroke-width="0.8"/>
<path d="M4 182.5H26.8724" stroke="black" stroke-width="0.8" stroke-miterlimit="10" stroke-linecap="round"/>
<path d="M53 182.5L137 182.5" stroke="black" stroke-width="0.8" stroke-miterlimit="10" stroke-linecap="round"/>
<path d="M176 182.5H231" stroke="black" stroke-width="0.8" stroke-miterlimit="10" stroke-linecap="round"/>
<path d="M257.5 182.5H295.336" stroke="black" stroke-width="0.8" stroke-miterlimit="10" stroke-linecap="round"/>
<path d="M139.5 72.5L144.5 77.5L157.5 64.5" stroke="black" stroke-width="0.8" stroke-miterlimit="10" stroke-linecap="round" stroke-linejoin="round"/>
<path d="M241.4 32C241.4 28.3549 244.355 25.4 248 25.4H287C290.645 25.4 293.6 28.3549 293.6 32V49C293.6 52.6451 290.645 55.6 287 55.6H260.34C260.031 55.6 259.731 55.7021 259.487 55.8903L253.766 60.2907L253.053 56.7254C252.922 56.071 252.348 55.6 251.68 55.6H248C244.355 55.6 241.4 52.6451 241.4 49V32Z" stroke="black" stroke-width="0.8" stroke-miterlimit="10" stroke-linejoin="round"/>
<rect x="135.4" y="63.4" width="18.2" height="18.2" rx="2.6" stroke="black" stroke-width="0.8" stroke-miterlimit="10"/>
<path d="M139.5 33.5L144.5 38.5L157.5 25.5" stroke="black" stroke-width="0.8" stroke-miterlimit="10" stroke-linecap="round" stroke-linejoin="round"/>
<rect x="135.4" y="24.4" width="18.2" height="18.2" rx="2.6" stroke="black" stroke-width="0.8" stroke-miterlimit="10"/>
</svg>
